<?xml version="1.0" encoding="utf-8" standalone="no"?>
<!DOCTYPE svg PUBLIC "-//W3C//DTD SVG 1.1//EN"
  "http://www.w3.org/Graphics/SVG/1.1/DTD/svg11.dtd">
<!-- Created with matplotlib (http://matplotlib.org/) -->
<svg height="432pt" version="1.1" viewBox="0 0 1044 432" width="1044pt" xmlns="http://www.w3.org/2000/svg" xmlns:xlink="http://www.w3.org/1999/xlink">
 <defs>
  <style type="text/css">
*{stroke-linecap:butt;stroke-linejoin:round;}
  </style>
 </defs>
 <g id="figure_1">
  <g id="patch_1">
   <path d="M 0 432 
L 1044.75 432 
L 1044.75 0 
L 0 0 
z
" style="fill:#ffffff;"/>
  </g>
  <g id="axes_1">
   <g id="patch_2">
    <path d="M 102.647594 355.98625 
L 465.179388 355.98625 
L 465.179388 48.01375 
L 102.647594 48.01375 
z
" style="fill:#ffffff;"/>
   </g>
   <g id="matplotlib.axis_1">
    <g id="xtick_1">
     <g id="line2d_1"/>
     <g id="text_1">
      <!-- SA -->
      <defs>
       <path d="M 4.5 23 
L 13.421875 23.78125 
Q 14.0625 18.40625 16.375 14.96875 
Q 18.703125 11.53125 23.578125 9.40625 
Q 28.46875 7.28125 34.578125 7.28125 
Q 39.984375 7.28125 44.140625 8.890625 
Q 48.296875 10.5 50.3125 13.296875 
Q 52.34375 16.109375 52.34375 19.4375 
Q 52.34375 22.796875 50.390625 25.3125 
Q 48.4375 27.828125 43.953125 29.546875 
Q 41.0625 30.671875 31.203125 33.03125 
Q 21.34375 35.40625 17.390625 37.5 
Q 12.25 40.1875 9.734375 44.15625 
Q 7.234375 48.140625 7.234375 53.078125 
Q 7.234375 58.5 10.296875 63.203125 
Q 13.375 67.921875 19.28125 70.359375 
Q 25.203125 72.796875 32.421875 72.796875 
Q 40.375 72.796875 46.453125 70.234375 
Q 52.546875 67.671875 55.8125 62.6875 
Q 59.078125 57.71875 59.328125 51.421875 
L 50.25 50.734375 
Q 49.515625 57.515625 45.28125 60.984375 
Q 41.0625 64.453125 32.8125 64.453125 
Q 24.21875 64.453125 20.28125 61.296875 
Q 16.359375 58.15625 16.359375 53.71875 
Q 16.359375 49.859375 19.140625 47.359375 
Q 21.875 44.875 33.421875 42.265625 
Q 44.96875 39.65625 49.265625 37.703125 
Q 55.515625 34.8125 58.484375 30.390625 
Q 61.46875 25.984375 61.46875 20.21875 
Q 61.46875 14.5 58.203125 9.4375 
Q 54.9375 4.390625 48.796875 1.578125 
Q 42.671875 -1.21875 35.015625 -1.21875 
Q 25.296875 -1.21875 18.71875 1.609375 
Q 12.15625 4.4375 8.421875 10.125 
Q 4.6875 15.828125 4.5 23 
z
" id="ArialMT-53"/>
       <path d="M -0.140625 0 
L 27.34375 71.578125 
L 37.546875 71.578125 
L 66.84375 0 
L 56.0625 0 
L 47.703125 21.6875 
L 17.78125 21.6875 
L 9.90625 0 
z
M 20.515625 29.390625 
L 44.78125 29.390625 
L 37.3125 49.21875 
Q 33.890625 58.25 32.234375 64.0625 
Q 30.859375 57.171875 28.375 50.390625 
z
" id="ArialMT-41"/>
      </defs>
      <g style="fill:#262626;" transform="translate(134.623444 377.301875)scale(0.2 -0.2)">
       <use xlink:href="#ArialMT-53"/>
       <use x="66.699219" xlink:href="#ArialMT-41"/>
      </g>
     </g>
    </g>
    <g id="xtick_2">
     <g id="line2d_2"/>
     <g id="text_2">
      <!-- GB -->
      <defs>
       <path d="M 41.21875 28.078125 
L 41.21875 36.46875 
L 71.53125 36.53125 
L 71.53125 9.96875 
Q 64.546875 4.390625 57.125 1.578125 
Q 49.703125 -1.21875 41.890625 -1.21875 
Q 31.34375 -1.21875 22.71875 3.296875 
Q 14.109375 7.8125 9.71875 16.359375 
Q 5.328125 24.90625 5.328125 35.453125 
Q 5.328125 45.90625 9.6875 54.953125 
Q 14.0625 64.015625 22.265625 68.40625 
Q 30.46875 72.796875 41.15625 72.796875 
Q 48.921875 72.796875 55.1875 70.28125 
Q 61.46875 67.78125 65.03125 63.28125 
Q 68.609375 58.796875 70.453125 51.5625 
L 61.921875 49.21875 
Q 60.296875 54.6875 57.90625 57.8125 
Q 55.515625 60.9375 51.0625 62.8125 
Q 46.625 64.703125 41.21875 64.703125 
Q 34.71875 64.703125 29.984375 62.71875 
Q 25.25 60.75 22.34375 57.515625 
Q 19.4375 54.296875 17.828125 50.4375 
Q 15.09375 43.796875 15.09375 36.03125 
Q 15.09375 26.46875 18.390625 20.015625 
Q 21.6875 13.578125 27.984375 10.453125 
Q 34.28125 7.328125 41.359375 7.328125 
Q 47.515625 7.328125 53.375 9.6875 
Q 59.234375 12.0625 62.25 14.75 
L 62.25 28.078125 
z
" id="ArialMT-47"/>
       <path d="M 7.328125 0 
L 7.328125 71.578125 
L 34.1875 71.578125 
Q 42.390625 71.578125 47.34375 69.40625 
Q 52.296875 67.234375 55.09375 62.71875 
Q 57.90625 58.203125 57.90625 53.265625 
Q 57.90625 48.6875 55.421875 44.625 
Q 52.9375 40.578125 47.90625 38.09375 
Q 54.390625 36.1875 57.875 31.59375 
Q 61.375 27 61.375 20.75 
Q 61.375 15.71875 59.25 11.390625 
Q 57.125 7.078125 54 4.734375 
Q 50.875 2.390625 46.15625 1.1875 
Q 41.453125 0 34.625 0 
z
M 16.796875 41.5 
L 32.28125 41.5 
Q 38.578125 41.5 41.3125 42.328125 
Q 44.921875 43.40625 46.75 45.890625 
Q 48.578125 48.390625 48.578125 52.15625 
Q 48.578125 55.71875 46.875 58.421875 
Q 45.171875 61.140625 41.984375 62.140625 
Q 38.8125 63.140625 31.109375 63.140625 
L 16.796875 63.140625 
z
M 16.796875 8.453125 
L 34.625 8.453125 
Q 39.203125 8.453125 41.0625 8.796875 
Q 44.34375 9.375 46.53125 10.734375 
Q 48.734375 12.109375 50.140625 14.71875 
Q 51.5625 17.328125 51.5625 20.75 
Q 51.5625 24.75 49.515625 27.703125 
Q 47.46875 30.671875 43.828125 31.859375 
Q 40.1875 33.0625 33.34375 33.0625 
L 16.796875 33.0625 
z
" id="ArialMT-42"/>
      </defs>
      <g style="fill:#262626;" transform="translate(224.148579 377.301875)scale(0.2 -0.2)">
       <use xlink:href="#ArialMT-47"/>
       <use x="77.783203" xlink:href="#ArialMT-42"/>
      </g>
     </g>
    </g>
    <g id="xtick_3">
     <g id="line2d_3"/>
     <g id="text_3">
      <!-- DTD -->
      <defs>
       <path d="M 7.71875 0 
L 7.71875 71.578125 
L 32.375 71.578125 
Q 40.71875 71.578125 45.125 70.5625 
Q 51.265625 69.140625 55.609375 65.4375 
Q 61.28125 60.640625 64.078125 53.1875 
Q 66.890625 45.75 66.890625 36.1875 
Q 66.890625 28.03125 64.984375 21.734375 
Q 63.09375 15.4375 60.109375 11.296875 
Q 57.125 7.171875 53.578125 4.796875 
Q 50.046875 2.4375 45.046875 1.21875 
Q 40.046875 0 33.546875 0 
z
M 17.1875 8.453125 
L 32.46875 8.453125 
Q 39.546875 8.453125 43.578125 9.765625 
Q 47.609375 11.078125 50 13.484375 
Q 53.375 16.84375 55.25 22.53125 
Q 57.125 28.21875 57.125 36.328125 
Q 57.125 47.5625 53.4375 53.59375 
Q 49.75 59.625 44.484375 61.671875 
Q 40.671875 63.140625 32.234375 63.140625 
L 17.1875 63.140625 
z
" id="ArialMT-44"/>
       <path d="M 25.921875 0 
L 25.921875 63.140625 
L 2.34375 63.140625 
L 2.34375 71.578125 
L 59.078125 71.578125 
L 59.078125 63.140625 
L 35.40625 63.140625 
L 35.40625 0 
z
" id="ArialMT-54"/>
      </defs>
      <g style="fill:#262626;" transform="translate(308.678403 377.301875)scale(0.2 -0.2)">
       <use xlink:href="#ArialMT-44"/>
       <use x="72.216797" xlink:href="#ArialMT-54"/>
       <use x="133.300781" xlink:href="#ArialMT-44"/>
      </g>
     </g>
    </g>
    <g id="xtick_4">
     <g id="line2d_4"/>
     <g id="text_4">
      <!-- $LRP_{\alpha_{1.5}\beta_{0.5}}$ -->
      <defs>
       <path d="M 16.796875 72.90625 
L 26.703125 72.90625 
L 14.203125 8.203125 
L 49.703125 8.203125 
L 48.09375 0 
L 2.6875 0 
z
" id="DejaVuSans-Oblique-4c"/>
       <path d="M 25.203125 64.796875 
L 20.21875 38.921875 
L 32.90625 38.921875 
Q 40.375 38.921875 44.984375 43.046875 
Q 49.609375 47.171875 49.609375 53.8125 
Q 49.609375 59.125 46.5 61.953125 
Q 43.40625 64.796875 37.59375 64.796875 
z
M 43.3125 35.015625 
Q 46.4375 34.28125 48.515625 31.390625 
Q 50.59375 28.515625 53.328125 19.921875 
L 59.515625 0 
L 49.125 0 
L 43.40625 18.703125 
Q 41.21875 25.921875 38.328125 28.359375 
Q 35.453125 30.8125 29.5 30.8125 
L 18.609375 30.8125 
L 12.59375 0 
L 2.6875 0 
L 16.890625 72.90625 
L 39.109375 72.90625 
Q 49.21875 72.90625 54.609375 68.328125 
Q 60.015625 63.765625 60.015625 55.171875 
Q 60.015625 47.5625 55.421875 41.984375 
Q 50.828125 36.421875 43.3125 35.015625 
z
" id="DejaVuSans-Oblique-52"/>
       <path d="M 16.890625 72.90625 
L 39.703125 72.90625 
Q 49.65625 72.90625 54.875 68.265625 
Q 60.109375 63.625 60.109375 54.6875 
Q 60.109375 42.671875 52.390625 35.984375 
Q 44.671875 29.296875 30.71875 29.296875 
L 18.3125 29.296875 
L 12.59375 0 
L 2.6875 0 
z
M 25.203125 64.796875 
L 19.921875 37.40625 
L 32.328125 37.40625 
Q 40.71875 37.40625 45.203125 41.703125 
Q 49.703125 46 49.703125 54 
Q 49.703125 59.125 46.65625 61.953125 
Q 43.609375 64.796875 38.09375 64.796875 
z
" id="DejaVuSans-Oblique-50"/>
       <path d="M 40.921875 25.4375 
L 40.96875 36.71875 
Q 41.015625 48.25 32.328125 48.296875 
Q 25.828125 48.34375 21.78125 42.921875 
Q 16.703125 36.234375 14.984375 27.296875 
Q 12.890625 16.546875 15.53125 11.421875 
Q 18.265625 6.203125 24.171875 6.203125 
Q 30.71875 6.203125 36.234375 16.609375 
z
M 33.84375 55.90625 
Q 49.078125 56.15625 48.875 40.375 
Q 48.875 40.375 56.5 54.6875 
L 64.5 54.6875 
L 48.734375 25.046875 
L 48.578125 14.359375 
Q 48.578125 11.96875 49.90625 9.96875 
Q 51.421875 7.625 52.984375 7.625 
L 57.328125 7.625 
L 55.859375 0 
L 50.4375 0 
Q 45.84375 0 42.53125 4.109375 
Q 40.96875 6.15625 40.921875 10.453125 
Q 37.75 5.21875 32.28125 0.78125 
Q 29.6875 -1.265625 22.703125 -1.21875 
Q 11.28125 -1.125 7.125 6.203125 
Q 2.875 13.8125 5.515625 27.296875 
Q 8.34375 41.796875 15.765625 48.390625 
Q 24.125 55.765625 33.84375 55.90625 
z
" id="DejaVuSans-Oblique-3b1"/>
       <path d="M 12.40625 8.296875 
L 28.515625 8.296875 
L 28.515625 63.921875 
L 10.984375 60.40625 
L 10.984375 69.390625 
L 28.421875 72.90625 
L 38.28125 72.90625 
L 38.28125 8.296875 
L 54.390625 8.296875 
L 54.390625 0 
L 12.40625 0 
z
" id="DejaVuSans-31"/>
       <path d="M 10.6875 12.40625 
L 21 12.40625 
L 21 0 
L 10.6875 0 
z
" id="DejaVuSans-2e"/>
       <path d="M 10.796875 72.90625 
L 49.515625 72.90625 
L 49.515625 64.59375 
L 19.828125 64.59375 
L 19.828125 46.734375 
Q 21.96875 47.46875 24.109375 47.828125 
Q 26.265625 48.1875 28.421875 48.1875 
Q 40.625 48.1875 47.75 41.5 
Q 54.890625 34.8125 54.890625 23.390625 
Q 54.890625 11.625 47.5625 5.09375 
Q 40.234375 -1.421875 26.90625 -1.421875 
Q 22.3125 -1.421875 17.546875 -0.640625 
Q 12.796875 0.140625 7.71875 1.703125 
L 7.71875 11.625 
Q 12.109375 9.234375 16.796875 8.0625 
Q 21.484375 6.890625 26.703125 6.890625 
Q 35.15625 6.890625 40.078125 11.328125 
Q 45.015625 15.765625 45.015625 23.390625 
Q 45.015625 31 40.078125 35.4375 
Q 35.15625 39.890625 26.703125 39.890625 
Q 22.75 39.890625 18.8125 39.015625 
Q 14.890625 38.140625 10.796875 36.28125 
z
" id="DejaVuSans-35"/>
       <path d="M 13.625 3.375 
L 8.9375 -20.796875 
L -0.09375 -20.796875 
L 14.5 54.34375 
Q 18.84375 76.609375 39.65625 76.609375 
Q 60.75 76.609375 57.171875 57.8125 
Q 54.734375 44.4375 45.21875 39.546875 
Q 58.015625 35.15625 55.515625 22.125 
Q 51.125 -1.078125 27.484375 -1.03125 
Q 17.140625 -0.984375 13.625 3.375 
z
M 15.921875 15.09375 
Q 19.671875 6.59375 29.296875 6.640625 
Q 43.359375 6.640625 46.34375 21.96875 
Q 49.03125 35.75 26.171875 34.671875 
L 27.78125 42.96875 
Q 45.453125 42.671875 48.53125 58.59375 
Q 50.640625 69.34375 39.203125 69.28125 
Q 26.421875 69.28125 23.484375 54.046875 
z
" id="DejaVuSans-Oblique-3b2"/>
       <path d="M 31.78125 66.40625 
Q 24.171875 66.40625 20.328125 58.90625 
Q 16.5 51.421875 16.5 36.375 
Q 16.5 21.390625 20.328125 13.890625 
Q 24.171875 6.390625 31.78125 6.390625 
Q 39.453125 6.390625 43.28125 13.890625 
Q 47.125 21.390625 47.125 36.375 
Q 47.125 51.421875 43.28125 58.90625 
Q 39.453125 66.40625 31.78125 66.40625 
z
M 31.78125 74.21875 
Q 44.046875 74.21875 50.515625 64.515625 
Q 56.984375 54.828125 56.984375 36.375 
Q 56.984375 17.96875 50.515625 8.265625 
Q 44.046875 -1.421875 31.78125 -1.421875 
Q 19.53125 -1.421875 13.0625 8.265625 
Q 6.59375 17.96875 6.59375 36.375 
Q 6.59375 54.828125 13.0625 64.515625 
Q 19.53125 74.21875 31.78125 74.21875 
z
" id="DejaVuSans-30"/>
      </defs>
      <g style="fill:#262626;" transform="translate(375.962914 377.58625)scale(0.2 -0.2)">
       <use transform="translate(0 0.09375)" xlink:href="#DejaVuSans-Oblique-4c"/>
       <use transform="translate(55.712891 0.09375)" xlink:href="#DejaVuSans-Oblique-52"/>
       <use transform="translate(125.195312 0.09375)" xlink:href="#DejaVuSans-Oblique-50"/>
       <use transform="translate(185.498047 -16.3125)scale(0.7)" xlink:href="#DejaVuSans-Oblique-3b1"/>
       <use transform="translate(231.640625 -27.796875)scale(0.49)" xlink:href="#DejaVuSans-31"/>
       <use transform="translate(262.815918 -27.796875)scale(0.49)" xlink:href="#DejaVuSans-2e"/>
       <use transform="translate(278.391602 -27.796875)scale(0.49)" xlink:href="#DejaVuSans-35"/>
       <use transform="translate(311.480957 -16.3125)scale(0.7)" xlink:href="#DejaVuSans-Oblique-3b2"/>
       <use transform="translate(356.153809 -27.796875)scale(0.49)" xlink:href="#DejaVuSans-30"/>
       <use transform="translate(387.329102 -27.796875)scale(0.49)" xlink:href="#DejaVuSans-2e"/>
       <use transform="translate(402.904785 -27.796875)scale(0.49)" xlink:href="#DejaVuSans-35"/>
      </g>
     </g>
    </g>
   </g>
   <g id="matplotlib.axis_2">
    <g id="ytick_1">
     <g id="line2d_5"/>
     <g id="text_5">
      <!-- 0.6 -->
      <defs>
       <path d="M 4.15625 35.296875 
Q 4.15625 48 6.765625 55.734375 
Q 9.375 63.484375 14.515625 67.671875 
Q 19.671875 71.875 27.484375 71.875 
Q 33.25 71.875 37.59375 69.546875 
Q 41.9375 67.234375 44.765625 62.859375 
Q 47.609375 58.5 49.21875 52.21875 
Q 50.828125 45.953125 50.828125 35.296875 
Q 50.828125 22.703125 48.234375 14.96875 
Q 45.65625 7.234375 40.5 3 
Q 35.359375 -1.21875 27.484375 -1.21875 
Q 17.140625 -1.21875 11.234375 6.203125 
Q 4.15625 15.140625 4.15625 35.296875 
z
M 13.1875 35.296875 
Q 13.1875 17.671875 17.3125 11.828125 
Q 21.4375 6 27.484375 6 
Q 33.546875 6 37.671875 11.859375 
Q 41.796875 17.71875 41.796875 35.296875 
Q 41.796875 52.984375 37.671875 58.78125 
Q 33.546875 64.59375 27.390625 64.59375 
Q 21.34375 64.59375 17.71875 59.46875 
Q 13.1875 52.9375 13.1875 35.296875 
z
" id="ArialMT-30"/>
       <path d="M 9.078125 0 
L 9.078125 10.015625 
L 19.09375 10.015625 
L 19.09375 0 
z
" id="ArialMT-2e"/>
       <path d="M 49.75 54.046875 
L 41.015625 53.375 
Q 39.84375 58.546875 37.703125 60.890625 
Q 34.125 64.65625 28.90625 64.65625 
Q 24.703125 64.65625 21.53125 62.3125 
Q 17.390625 59.28125 14.984375 53.46875 
Q 12.59375 47.65625 12.5 36.921875 
Q 15.671875 41.75 20.265625 44.09375 
Q 24.859375 46.4375 29.890625 46.4375 
Q 38.671875 46.4375 44.84375 39.96875 
Q 51.03125 33.5 51.03125 23.25 
Q 51.03125 16.5 48.125 10.71875 
Q 45.21875 4.9375 40.140625 1.859375 
Q 35.0625 -1.21875 28.609375 -1.21875 
Q 17.625 -1.21875 10.6875 6.859375 
Q 3.765625 14.9375 3.765625 33.5 
Q 3.765625 54.25 11.421875 63.671875 
Q 18.109375 71.875 29.4375 71.875 
Q 37.890625 71.875 43.28125 67.140625 
Q 48.6875 62.40625 49.75 54.046875 
z
M 13.875 23.1875 
Q 13.875 18.65625 15.796875 14.5 
Q 17.71875 10.359375 21.1875 8.171875 
Q 24.65625 6 28.46875 6 
Q 34.03125 6 38.03125 10.484375 
Q 42.046875 14.984375 42.046875 22.703125 
Q 42.046875 30.125 38.078125 34.390625 
Q 34.125 38.671875 28.125 38.671875 
Q 22.171875 38.671875 18.015625 34.390625 
Q 13.875 30.125 13.875 23.1875 
z
" id="ArialMT-36"/>
      </defs>
      <g style="fill:#262626;" transform="translate(67.847594 346.063509)scale(0.2 -0.2)">
       <use xlink:href="#ArialMT-30"/>
       <use x="55.615234" xlink:href="#ArialMT-2e"/>
       <use x="83.398438" xlink:href="#ArialMT-36"/>
      </g>
     </g>
    </g>
    <g id="ytick_2">
     <g id="line2d_6"/>
     <g id="text_6">
      <!-- 0.7 -->
      <defs>
       <path d="M 4.734375 62.203125 
L 4.734375 70.65625 
L 51.078125 70.65625 
L 51.078125 63.8125 
Q 44.234375 56.546875 37.515625 44.484375 
Q 30.8125 32.421875 27.15625 19.671875 
Q 24.515625 10.6875 23.78125 0 
L 14.75 0 
Q 14.890625 8.453125 18.0625 20.40625 
Q 21.234375 32.375 27.171875 43.484375 
Q 33.109375 54.59375 39.796875 62.203125 
z
" id="ArialMT-37"/>
      </defs>
      <g style="fill:#262626;" transform="translate(67.847594 272.439401)scale(0.2 -0.2)">
       <use xlink:href="#ArialMT-30"/>
       <use x="55.615234" xlink:href="#ArialMT-2e"/>
       <use x="83.398438" xlink:href="#ArialMT-37"/>
      </g>
     </g>
    </g>
    <g id="ytick_3">
     <g id="line2d_7"/>
     <g id="text_7">
      <!-- 0.8 -->
      <defs>
       <path d="M 17.671875 38.8125 
Q 12.203125 40.828125 9.5625 44.53125 
Q 6.9375 48.25 6.9375 53.421875 
Q 6.9375 61.234375 12.546875 66.546875 
Q 18.171875 71.875 27.484375 71.875 
Q 36.859375 71.875 42.578125 66.421875 
Q 48.296875 60.984375 48.296875 53.171875 
Q 48.296875 48.1875 45.671875 44.5 
Q 43.0625 40.828125 37.75 38.8125 
Q 44.34375 36.671875 47.78125 31.875 
Q 51.21875 27.09375 51.21875 20.453125 
Q 51.21875 11.28125 44.71875 5.03125 
Q 38.234375 -1.21875 27.640625 -1.21875 
Q 17.046875 -1.21875 10.546875 5.046875 
Q 4.046875 11.328125 4.046875 20.703125 
Q 4.046875 27.6875 7.59375 32.390625 
Q 11.140625 37.109375 17.671875 38.8125 
z
M 15.921875 53.71875 
Q 15.921875 48.640625 19.1875 45.40625 
Q 22.46875 42.1875 27.6875 42.1875 
Q 32.765625 42.1875 36.015625 45.375 
Q 39.265625 48.578125 39.265625 53.21875 
Q 39.265625 58.0625 35.90625 61.359375 
Q 32.5625 64.65625 27.59375 64.65625 
Q 22.5625 64.65625 19.234375 61.421875 
Q 15.921875 58.203125 15.921875 53.71875 
z
M 13.09375 20.65625 
Q 13.09375 16.890625 14.875 13.375 
Q 16.65625 9.859375 20.171875 7.921875 
Q 23.6875 6 27.734375 6 
Q 34.03125 6 38.125 10.046875 
Q 42.234375 14.109375 42.234375 20.359375 
Q 42.234375 26.703125 38.015625 30.859375 
Q 33.796875 35.015625 27.4375 35.015625 
Q 21.234375 35.015625 17.15625 30.90625 
Q 13.09375 26.8125 13.09375 20.65625 
z
" id="ArialMT-38"/>
      </defs>
      <g style="fill:#262626;" transform="translate(67.847594 198.815292)scale(0.2 -0.2)">
       <use xlink:href="#ArialMT-30"/>
       <use x="55.615234" xlink:href="#ArialMT-2e"/>
       <use x="83.398438" xlink:href="#ArialMT-38"/>
      </g>
     </g>
    </g>
    <g id="ytick_4">
     <g id="line2d_8"/>
     <g id="text_8">
      <!-- 0.9 -->
      <defs>
       <path d="M 5.46875 16.546875 
L 13.921875 17.328125 
Q 14.984375 11.375 18.015625 8.6875 
Q 21.046875 6 25.78125 6 
Q 29.828125 6 32.875 7.859375 
Q 35.9375 9.71875 37.890625 12.8125 
Q 39.84375 15.921875 41.15625 21.1875 
Q 42.484375 26.46875 42.484375 31.9375 
Q 42.484375 32.515625 42.4375 33.6875 
Q 39.796875 29.5 35.234375 26.875 
Q 30.671875 24.265625 25.34375 24.265625 
Q 16.453125 24.265625 10.296875 30.703125 
Q 4.15625 37.15625 4.15625 47.703125 
Q 4.15625 58.59375 10.578125 65.234375 
Q 17 71.875 26.65625 71.875 
Q 33.640625 71.875 39.421875 68.109375 
Q 45.21875 64.359375 48.21875 57.390625 
Q 51.21875 50.4375 51.21875 37.25 
Q 51.21875 23.53125 48.234375 15.40625 
Q 45.265625 7.28125 39.375 3.03125 
Q 33.5 -1.21875 25.59375 -1.21875 
Q 17.1875 -1.21875 11.859375 3.4375 
Q 6.546875 8.109375 5.46875 16.546875 
z
M 41.453125 48.140625 
Q 41.453125 55.71875 37.421875 60.15625 
Q 33.40625 64.59375 27.734375 64.59375 
Q 21.875 64.59375 17.53125 59.8125 
Q 13.1875 55.03125 13.1875 47.40625 
Q 13.1875 40.578125 17.3125 36.296875 
Q 21.4375 32.03125 27.484375 32.03125 
Q 33.59375 32.03125 37.515625 36.296875 
Q 41.453125 40.578125 41.453125 48.140625 
z
" id="ArialMT-39"/>
      </defs>
      <g style="fill:#262626;" transform="translate(67.847594 125.191183)scale(0.2 -0.2)">
       <use xlink:href="#ArialMT-30"/>
       <use x="55.615234" xlink:href="#ArialMT-2e"/>
       <use x="83.398438" xlink:href="#ArialMT-39"/>
      </g>
     </g>
    </g>
    <g id="text_9">
     <!-- Average Cosine Similarity -->
     <defs>
      <path d="M 21 0 
L 1.265625 51.859375 
L 10.546875 51.859375 
L 21.6875 20.796875 
Q 23.484375 15.765625 25 10.359375 
Q 26.171875 14.453125 28.265625 20.21875 
L 39.796875 51.859375 
L 48.828125 51.859375 
L 29.203125 0 
z
" id="ArialMT-76"/>
      <path d="M 42.09375 16.703125 
L 51.171875 15.578125 
Q 49.03125 7.625 43.21875 3.21875 
Q 37.40625 -1.171875 28.375 -1.171875 
Q 17 -1.171875 10.328125 5.828125 
Q 3.65625 12.84375 3.65625 25.484375 
Q 3.65625 38.578125 10.390625 45.796875 
Q 17.140625 53.03125 27.875 53.03125 
Q 38.28125 53.03125 44.875 45.953125 
Q 51.46875 38.875 51.46875 26.03125 
Q 51.46875 25.25 51.421875 23.6875 
L 12.75 23.6875 
Q 13.234375 15.140625 17.578125 10.59375 
Q 21.921875 6.0625 28.421875 6.0625 
Q 33.25 6.0625 36.671875 8.59375 
Q 40.09375 11.140625 42.09375 16.703125 
z
M 13.234375 30.90625 
L 42.1875 30.90625 
Q 41.609375 37.453125 38.875 40.71875 
Q 34.671875 45.796875 27.984375 45.796875 
Q 21.921875 45.796875 17.796875 41.75 
Q 13.671875 37.703125 13.234375 30.90625 
z
" id="ArialMT-65"/>
      <path d="M 6.5 0 
L 6.5 51.859375 
L 14.40625 51.859375 
L 14.40625 44 
Q 17.4375 49.515625 20 51.265625 
Q 22.5625 53.03125 25.640625 53.03125 
Q 30.078125 53.03125 34.671875 50.203125 
L 31.640625 42.046875 
Q 28.421875 43.953125 25.203125 43.953125 
Q 22.3125 43.953125 20.015625 42.21875 
Q 17.71875 40.484375 16.75 37.40625 
Q 15.28125 32.71875 15.28125 27.15625 
L 15.28125 0 
z
" id="ArialMT-72"/>
      <path d="M 40.4375 6.390625 
Q 35.546875 2.25 31.03125 0.53125 
Q 26.515625 -1.171875 21.34375 -1.171875 
Q 12.796875 -1.171875 8.203125 3 
Q 3.609375 7.171875 3.609375 13.671875 
Q 3.609375 17.484375 5.34375 20.625 
Q 7.078125 23.78125 9.890625 25.6875 
Q 12.703125 27.59375 16.21875 28.5625 
Q 18.796875 29.25 24.03125 29.890625 
Q 34.671875 31.15625 39.703125 32.90625 
Q 39.75 34.71875 39.75 35.203125 
Q 39.75 40.578125 37.25 42.78125 
Q 33.890625 45.75 27.25 45.75 
Q 21.046875 45.75 18.09375 43.578125 
Q 15.140625 41.40625 13.71875 35.890625 
L 5.125 37.0625 
Q 6.296875 42.578125 8.984375 45.96875 
Q 11.671875 49.359375 16.75 51.1875 
Q 21.828125 53.03125 28.515625 53.03125 
Q 35.15625 53.03125 39.296875 51.46875 
Q 43.453125 49.90625 45.40625 47.53125 
Q 47.359375 45.171875 48.140625 41.546875 
Q 48.578125 39.3125 48.578125 33.453125 
L 48.578125 21.734375 
Q 48.578125 9.46875 49.140625 6.21875 
Q 49.703125 2.984375 51.375 0 
L 42.1875 0 
Q 40.828125 2.734375 40.4375 6.390625 
z
M 39.703125 26.03125 
Q 34.90625 24.078125 25.34375 22.703125 
Q 19.921875 21.921875 17.671875 20.9375 
Q 15.4375 19.96875 14.203125 18.09375 
Q 12.984375 16.21875 12.984375 13.921875 
Q 12.984375 10.40625 15.640625 8.0625 
Q 18.3125 5.71875 23.4375 5.71875 
Q 28.515625 5.71875 32.46875 7.9375 
Q 36.421875 10.15625 38.28125 14.015625 
Q 39.703125 17 39.703125 22.796875 
z
" id="ArialMT-61"/>
      <path d="M 4.984375 -4.296875 
L 13.53125 -5.5625 
Q 14.0625 -9.515625 16.5 -11.328125 
Q 19.78125 -13.765625 25.4375 -13.765625 
Q 31.546875 -13.765625 34.859375 -11.328125 
Q 38.1875 -8.890625 39.359375 -4.5 
Q 40.046875 -1.8125 39.984375 6.78125 
Q 34.234375 0 25.640625 0 
Q 14.9375 0 9.078125 7.71875 
Q 3.21875 15.4375 3.21875 26.21875 
Q 3.21875 33.640625 5.90625 39.90625 
Q 8.59375 46.1875 13.6875 49.609375 
Q 18.796875 53.03125 25.6875 53.03125 
Q 34.859375 53.03125 40.828125 45.609375 
L 40.828125 51.859375 
L 48.921875 51.859375 
L 48.921875 7.03125 
Q 48.921875 -5.078125 46.453125 -10.125 
Q 44 -15.1875 38.640625 -18.109375 
Q 33.296875 -21.046875 25.484375 -21.046875 
Q 16.21875 -21.046875 10.5 -16.875 
Q 4.78125 -12.703125 4.984375 -4.296875 
z
M 12.25 26.859375 
Q 12.25 16.65625 16.296875 11.96875 
Q 20.359375 7.28125 26.46875 7.28125 
Q 32.515625 7.28125 36.609375 11.9375 
Q 40.71875 16.609375 40.71875 26.5625 
Q 40.71875 36.078125 36.5 40.90625 
Q 32.28125 45.75 26.3125 45.75 
Q 20.453125 45.75 16.34375 40.984375 
Q 12.25 36.234375 12.25 26.859375 
z
" id="ArialMT-67"/>
      <path id="ArialMT-20"/>
      <path d="M 58.796875 25.09375 
L 68.265625 22.703125 
Q 65.28125 11.03125 57.546875 4.90625 
Q 49.8125 -1.21875 38.625 -1.21875 
Q 27.046875 -1.21875 19.796875 3.484375 
Q 12.546875 8.203125 8.765625 17.140625 
Q 4.984375 26.078125 4.984375 36.328125 
Q 4.984375 47.515625 9.25 55.828125 
Q 13.53125 64.15625 21.40625 68.46875 
Q 29.296875 72.796875 38.765625 72.796875 
Q 49.515625 72.796875 56.828125 67.328125 
Q 64.15625 61.859375 67.046875 51.953125 
L 57.71875 49.75 
Q 55.21875 57.5625 50.484375 61.125 
Q 45.75 64.703125 38.578125 64.703125 
Q 30.328125 64.703125 24.78125 60.734375 
Q 19.234375 56.78125 16.984375 50.109375 
Q 14.75 43.453125 14.75 36.375 
Q 14.75 27.25 17.40625 20.4375 
Q 20.0625 13.625 25.671875 10.25 
Q 31.296875 6.890625 37.84375 6.890625 
Q 45.796875 6.890625 51.3125 11.46875 
Q 56.84375 16.0625 58.796875 25.09375 
z
" id="ArialMT-43"/>
      <path d="M 3.328125 25.921875 
Q 3.328125 40.328125 11.328125 47.265625 
Q 18.015625 53.03125 27.640625 53.03125 
Q 38.328125 53.03125 45.109375 46.015625 
Q 51.90625 39.015625 51.90625 26.65625 
Q 51.90625 16.65625 48.90625 10.90625 
Q 45.90625 5.171875 40.15625 2 
Q 34.421875 -1.171875 27.640625 -1.171875 
Q 16.75 -1.171875 10.03125 5.8125 
Q 3.328125 12.796875 3.328125 25.921875 
z
M 12.359375 25.921875 
Q 12.359375 15.96875 16.703125 11.015625 
Q 21.046875 6.0625 27.640625 6.0625 
Q 34.1875 6.0625 38.53125 11.03125 
Q 42.875 16.015625 42.875 26.21875 
Q 42.875 35.84375 38.5 40.796875 
Q 34.125 45.75 27.640625 45.75 
Q 21.046875 45.75 16.703125 40.8125 
Q 12.359375 35.890625 12.359375 25.921875 
z
" id="ArialMT-6f"/>
      <path d="M 3.078125 15.484375 
L 11.765625 16.84375 
Q 12.5 11.625 15.84375 8.84375 
Q 19.1875 6.0625 25.203125 6.0625 
Q 31.25 6.0625 34.171875 8.515625 
Q 37.109375 10.984375 37.109375 14.3125 
Q 37.109375 17.28125 34.515625 19 
Q 32.71875 20.171875 25.53125 21.96875 
Q 15.875 24.421875 12.140625 26.203125 
Q 8.40625 27.984375 6.46875 31.125 
Q 4.546875 34.28125 4.546875 38.09375 
Q 4.546875 41.546875 6.125 44.5 
Q 7.71875 47.46875 10.453125 49.421875 
Q 12.5 50.921875 16.03125 51.96875 
Q 19.578125 53.03125 23.640625 53.03125 
Q 29.734375 53.03125 34.34375 51.265625 
Q 38.96875 49.515625 41.15625 46.5 
Q 43.359375 43.5 44.1875 38.484375 
L 35.59375 37.3125 
Q 35.015625 41.3125 32.203125 43.546875 
Q 29.390625 45.796875 24.265625 45.796875 
Q 18.21875 45.796875 15.625 43.796875 
Q 13.03125 41.796875 13.03125 39.109375 
Q 13.03125 37.40625 14.109375 36.03125 
Q 15.1875 34.625 17.484375 33.6875 
Q 18.796875 33.203125 25.25 31.453125 
Q 34.578125 28.953125 38.25 27.359375 
Q 41.9375 25.78125 44.03125 22.75 
Q 46.140625 19.734375 46.140625 15.234375 
Q 46.140625 10.84375 43.578125 6.953125 
Q 41.015625 3.078125 36.171875 0.953125 
Q 31.34375 -1.171875 25.25 -1.171875 
Q 15.140625 -1.171875 9.84375 3.03125 
Q 4.546875 7.234375 3.078125 15.484375 
z
" id="ArialMT-73"/>
      <path d="M 6.640625 61.46875 
L 6.640625 71.578125 
L 15.4375 71.578125 
L 15.4375 61.46875 
z
M 6.640625 0 
L 6.640625 51.859375 
L 15.4375 51.859375 
L 15.4375 0 
z
" id="ArialMT-69"/>
      <path d="M 6.59375 0 
L 6.59375 51.859375 
L 14.5 51.859375 
L 14.5 44.484375 
Q 20.21875 53.03125 31 53.03125 
Q 35.6875 53.03125 39.625 51.34375 
Q 43.5625 49.65625 45.515625 46.921875 
Q 47.46875 44.1875 48.25 40.4375 
Q 48.734375 37.984375 48.734375 31.890625 
L 48.734375 0 
L 39.9375 0 
L 39.9375 31.546875 
Q 39.9375 36.921875 38.90625 39.578125 
Q 37.890625 42.234375 35.28125 43.8125 
Q 32.671875 45.40625 29.15625 45.40625 
Q 23.53125 45.40625 19.453125 41.84375 
Q 15.375 38.28125 15.375 28.328125 
L 15.375 0 
z
" id="ArialMT-6e"/>
      <path d="M 6.59375 0 
L 6.59375 51.859375 
L 14.453125 51.859375 
L 14.453125 44.578125 
Q 16.890625 48.390625 20.9375 50.703125 
Q 25 53.03125 30.171875 53.03125 
Q 35.9375 53.03125 39.625 50.640625 
Q 43.3125 48.25 44.828125 43.953125 
Q 50.984375 53.03125 60.84375 53.03125 
Q 68.5625 53.03125 72.703125 48.75 
Q 76.859375 44.484375 76.859375 35.59375 
L 76.859375 0 
L 68.109375 0 
L 68.109375 32.671875 
Q 68.109375 37.9375 67.25 40.25 
Q 66.40625 42.578125 64.15625 43.984375 
Q 61.921875 45.40625 58.890625 45.40625 
Q 53.421875 45.40625 49.796875 41.765625 
Q 46.1875 38.140625 46.1875 30.125 
L 46.1875 0 
L 37.40625 0 
L 37.40625 33.6875 
Q 37.40625 39.546875 35.25 42.46875 
Q 33.109375 45.40625 28.21875 45.40625 
Q 24.515625 45.40625 21.359375 43.453125 
Q 18.21875 41.5 16.796875 37.734375 
Q 15.375 33.984375 15.375 26.90625 
L 15.375 0 
z
" id="ArialMT-6d"/>
      <path d="M 6.390625 0 
L 6.390625 71.578125 
L 15.1875 71.578125 
L 15.1875 0 
z
" id="ArialMT-6c"/>
      <path d="M 25.78125 7.859375 
L 27.046875 0.09375 
Q 23.34375 -0.6875 20.40625 -0.6875 
Q 15.625 -0.6875 12.984375 0.828125 
Q 10.359375 2.34375 9.28125 4.8125 
Q 8.203125 7.28125 8.203125 15.1875 
L 8.203125 45.015625 
L 1.765625 45.015625 
L 1.765625 51.859375 
L 8.203125 51.859375 
L 8.203125 64.703125 
L 16.9375 69.96875 
L 16.9375 51.859375 
L 25.78125 51.859375 
L 25.78125 45.015625 
L 16.9375 45.015625 
L 16.9375 14.703125 
Q 16.9375 10.9375 17.40625 9.859375 
Q 17.875 8.796875 18.921875 8.15625 
Q 19.96875 7.515625 21.921875 7.515625 
Q 23.390625 7.515625 25.78125 7.859375 
z
" id="ArialMT-74"/>
      <path d="M 6.203125 -19.96875 
L 5.21875 -11.71875 
Q 8.109375 -12.5 10.25 -12.5 
Q 13.1875 -12.5 14.9375 -11.515625 
Q 16.703125 -10.546875 17.828125 -8.796875 
Q 18.65625 -7.46875 20.515625 -2.25 
Q 20.75 -1.515625 21.296875 -0.09375 
L 1.609375 51.859375 
L 11.078125 51.859375 
L 21.875 21.828125 
Q 23.96875 16.109375 25.640625 9.8125 
Q 27.15625 15.875 29.25 21.625 
L 40.328125 51.859375 
L 49.125 51.859375 
L 29.390625 -0.875 
Q 26.21875 -9.421875 24.46875 -12.640625 
Q 22.125 -17 19.09375 -19.015625 
Q 16.0625 -21.046875 11.859375 -21.046875 
Q 9.328125 -21.046875 6.203125 -19.96875 
z
" id="ArialMT-79"/>
     </defs>
     <g style="fill:#262626;" transform="translate(59.217282 327.929375)rotate(-90)scale(0.22 -0.22)">
      <use xlink:href="#ArialMT-41"/>
      <use x="66.683594" xlink:href="#ArialMT-76"/>
      <use x="116.683594" xlink:href="#ArialMT-65"/>
      <use x="172.298828" xlink:href="#ArialMT-72"/>
      <use x="205.599609" xlink:href="#ArialMT-61"/>
      <use x="261.214844" xlink:href="#ArialMT-67"/>
      <use x="316.830078" xlink:href="#ArialMT-65"/>
      <use x="372.445312" xlink:href="#ArialMT-20"/>
      <use x="400.228516" xlink:href="#ArialMT-43"/>
      <use x="472.445312" xlink:href="#ArialMT-6f"/>
      <use x="528.060547" xlink:href="#ArialMT-73"/>
      <use x="578.060547" xlink:href="#ArialMT-69"/>
      <use x="600.277344" xlink:href="#ArialMT-6e"/>
      <use x="655.892578" xlink:href="#ArialMT-65"/>
      <use x="711.507812" xlink:href="#ArialMT-20"/>
      <use x="739.291016" xlink:href="#ArialMT-53"/>
      <use x="805.990234" xlink:href="#ArialMT-69"/>
      <use x="828.207031" xlink:href="#ArialMT-6d"/>
      <use x="911.507812" xlink:href="#ArialMT-69"/>
      <use x="933.724609" xlink:href="#ArialMT-6c"/>
      <use x="955.941406" xlink:href="#ArialMT-61"/>
      <use x="1011.556641" xlink:href="#ArialMT-72"/>
      <use x="1044.857422" xlink:href="#ArialMT-69"/>
      <use x="1067.074219" xlink:href="#ArialMT-74"/>
      <use x="1094.857422" xlink:href="#ArialMT-79"/>
     </g>
    </g>
   </g>
   <g id="PathCollection_1">
    <defs>
     <path d="M 0 1.97397 
C 0.523503 1.97397 1.025635 1.76598 1.395807 1.395807 
C 1.76598 1.025635 1.97397 0.523503 1.97397 0 
C 1.97397 -0.523503 1.76598 -1.025635 1.395807 -1.395807 
C 1.025635 -1.76598 0.523503 -1.97397 0 -1.97397 
C -0.523503 -1.97397 -1.025635 -1.76598 -1.395807 -1.395807 
C -1.76598 -1.025635 -1.97397 -0.523503 -1.97397 0 
C -1.97397 0.523503 -1.76598 1.025635 -1.395807 1.395807 
C -1.025635 1.76598 -0.523503 1.97397 0 1.97397 
z
" id="C0_0_ff4aef3da6"/>
    </defs>
    <g clip-path="url(#p914ce1ec9d)">
     <use style="fill:#0000ff;stroke:#0000ff;stroke-width:2.3625;" x="147.964069" xlink:href="#C0_0_ff4aef3da6" y="250.925385"/>
    </g>
    <g clip-path="url(#p914ce1ec9d)">
     <use style="fill:#0000ff;stroke:#0000ff;stroke-width:2.3625;" x="238.597017" xlink:href="#C0_0_ff4aef3da6" y="224.187319"/>
    </g>
    <g clip-path="url(#p914ce1ec9d)">
     <use style="fill:#0000ff;stroke:#0000ff;stroke-width:2.3625;" x="329.229965" xlink:href="#C0_0_ff4aef3da6" y="279.284071"/>
    </g>
    <g clip-path="url(#p914ce1ec9d)">
     <use style="fill:#0000ff;stroke:#0000ff;stroke-width:2.3625;" x="419.862914" xlink:href="#C0_0_ff4aef3da6" y="244.799743"/>
    </g>
   </g>
   <g id="line2d_9">
    <path clip-path="url(#p914ce1ec9d)" d="M 147.964069 250.925385 
L 238.597017 224.187319 
L 329.229965 279.284071 
L 419.862914 244.799743 
" style="fill:none;stroke:#0000ff;stroke-linecap:round;stroke-width:3.15;"/>
   </g>
   <g id="line2d_10">
    <path clip-path="url(#p914ce1ec9d)" d="M 147.964069 256.099733 
L 147.964069 247.001256 
" style="fill:none;stroke:#0000ff;stroke-linecap:round;stroke-width:3.15;"/>
   </g>
   <g id="line2d_11">
    <path clip-path="url(#p914ce1ec9d)" d="M 238.597017 230.401028 
L 238.597017 219.405496 
" style="fill:none;stroke:#0000ff;stroke-linecap:round;stroke-width:3.15;"/>
   </g>
   <g id="line2d_12">
    <path clip-path="url(#p914ce1ec9d)" d="M 329.229965 284.106823 
L 329.229965 274.547066 
" style="fill:none;stroke:#0000ff;stroke-linecap:round;stroke-width:3.15;"/>
   </g>
   <g id="line2d_13">
    <path clip-path="url(#p914ce1ec9d)" d="M 419.862914 250.303946 
L 419.862914 239.046013 
" style="fill:none;stroke:#0000ff;stroke-linecap:round;stroke-width:3.15;"/>
   </g>
   <g id="PathCollection_2">
    <path clip-path="url(#p914ce1ec9d)" d="M 144.016129 273.404494 
L 151.912008 273.404494 
L 151.912008 265.508615 
L 144.016129 265.508615 
z
" style="fill:#0000ff;stroke:#0000ff;stroke-width:2.3625;"/>
    <path clip-path="url(#p914ce1ec9d)" d="M 234.649077 245.68271 
L 242.544956 245.68271 
L 242.544956 237.786831 
L 234.649077 237.786831 
z
" style="fill:#0000ff;stroke:#0000ff;stroke-width:2.3625;"/>
    <path clip-path="url(#p914ce1ec9d)" d="M 325.282026 297.848502 
L 333.177905 297.848502 
L 333.177905 289.952623 
L 325.282026 289.952623 
z
" style="fill:#0000ff;stroke:#0000ff;stroke-width:2.3625;"/>
    <path clip-path="url(#p914ce1ec9d)" d="M 415.914974 273.803367 
L 423.810853 273.803367 
L 423.810853 265.907488 
L 415.914974 265.907488 
z
" style="fill:#0000ff;stroke:#0000ff;stroke-width:2.3625;"/>
   </g>
   <g id="line2d_14">
    <path clip-path="url(#p914ce1ec9d)" d="M 147.964069 269.456554 
L 238.597017 241.734771 
L 329.229965 293.900562 
L 419.862914 269.855427 
" style="fill:none;stroke:#0000ff;stroke-linecap:round;stroke-width:3.15;"/>
   </g>
   <g id="line2d_15">
    <path clip-path="url(#p914ce1ec9d)" d="M 147.964069 273.184891 
L 147.964069 264.59145 
" style="fill:none;stroke:#0000ff;stroke-linecap:round;stroke-width:3.15;"/>
   </g>
   <g id="line2d_16">
    <path clip-path="url(#p914ce1ec9d)" d="M 238.597017 247.396606 
L 238.597017 236.996302 
" style="fill:none;stroke:#0000ff;stroke-linecap:round;stroke-width:3.15;"/>
   </g>
   <g id="line2d_17">
    <path clip-path="url(#p914ce1ec9d)" d="M 329.229965 299.515532 
L 329.229965 288.252838 
" style="fill:none;stroke:#0000ff;stroke-linecap:round;stroke-width:3.15;"/>
   </g>
   <g id="line2d_18">
    <path clip-path="url(#p914ce1ec9d)" d="M 419.862914 275.409105 
L 419.862914 264.183946 
" style="fill:none;stroke:#0000ff;stroke-linecap:round;stroke-width:3.15;"/>
   </g>
   <g id="patch_3">
    <path d="M 102.647594 355.98625 
L 102.647594 48.01375 
" style="fill:none;stroke:#262626;stroke-linecap:square;stroke-linejoin:miter;stroke-width:1.25;"/>
   </g>
   <g id="patch_4">
    <path d="M 102.647594 355.98625 
L 465.179388 355.98625 
" style="fill:none;stroke:#262626;stroke-linecap:square;stroke-linejoin:miter;stroke-width:1.25;"/>
   </g>
   <g id="PathCollection_3">
    <defs>
     <path d="M 0 1.97397 
C 0.523503 1.97397 1.025635 1.76598 1.395807 1.395807 
C 1.76598 1.025635 1.97397 0.523503 1.97397 0 
C 1.97397 -0.523503 1.76598 -1.025635 1.395807 -1.395807 
C 1.025635 -1.76598 0.523503 -1.97397 0 -1.97397 
C -0.523503 -1.97397 -1.025635 -1.76598 -1.395807 -1.395807 
C -1.76598 -1.025635 -1.97397 -0.523503 -1.97397 0 
C -1.97397 0.523503 -1.76598 1.025635 -1.395807 1.395807 
C -1.025635 1.76598 -0.523503 1.97397 0 1.97397 
z
" id="C1_0_17445af34d"/>
    </defs>
    <g clip-path="url(#p914ce1ec9d)">
     <use style="fill:#ff0000;stroke:#ff0000;stroke-width:2.3625;" x="147.964069" xlink:href="#C1_0_17445af34d" y="150.637022"/>
    </g>
    <g clip-path="url(#p914ce1ec9d)">
     <use style="fill:#ff0000;stroke:#ff0000;stroke-width:2.3625;" x="238.597017" xlink:href="#C1_0_17445af34d" y="105.639125"/>
    </g>
    <g clip-path="url(#p914ce1ec9d)">
     <use style="fill:#ff0000;stroke:#ff0000;stroke-width:2.3625;" x="329.229965" xlink:href="#C1_0_17445af34d" y="105.25286"/>
    </g>
    <g clip-path="url(#p914ce1ec9d)">
     <use style="fill:#ff0000;stroke:#ff0000;stroke-width:2.3625;" x="419.862914" xlink:href="#C1_0_17445af34d" y="81.748435"/>
    </g>
   </g>
   <g id="line2d_19">
    <path clip-path="url(#p914ce1ec9d)" d="M 147.964069 150.637022 
L 238.597017 105.639125 
L 329.229965 105.25286 
L 419.862914 81.748435 
" style="fill:none;stroke:#ff0000;stroke-linecap:round;stroke-width:3.15;"/>
   </g>
   <g id="line2d_20">
    <path clip-path="url(#p914ce1ec9d)" d="M 147.964069 153.503378 
L 147.964069 147.906393 
" style="fill:none;stroke:#ff0000;stroke-linecap:round;stroke-width:3.15;"/>
   </g>
   <g id="line2d_21">
    <path clip-path="url(#p914ce1ec9d)" d="M 238.597017 110.514284 
L 238.597017 101.68161 
" style="fill:none;stroke:#ff0000;stroke-linecap:round;stroke-width:3.15;"/>
   </g>
   <g id="line2d_22">
    <path clip-path="url(#p914ce1ec9d)" d="M 329.229965 106.807677 
L 329.229965 103.87385 
" style="fill:none;stroke:#ff0000;stroke-linecap:round;stroke-width:3.15;"/>
   </g>
   <g id="line2d_23">
    <path clip-path="url(#p914ce1ec9d)" d="M 419.862914 85.977701 
L 419.862914 77.91547 
" style="fill:none;stroke:#ff0000;stroke-linecap:round;stroke-width:3.15;"/>
   </g>
   <g id="text_10">
    <!-- dataset = mnist-3-digits-maj -->
    <defs>
     <path d="M 40.234375 0 
L 40.234375 6.546875 
Q 35.296875 -1.171875 25.734375 -1.171875 
Q 19.53125 -1.171875 14.328125 2.25 
Q 9.125 5.671875 6.265625 11.796875 
Q 3.421875 17.921875 3.421875 25.875 
Q 3.421875 33.640625 6 39.96875 
Q 8.59375 46.296875 13.765625 49.65625 
Q 18.953125 53.03125 25.34375 53.03125 
Q 30.03125 53.03125 33.6875 51.046875 
Q 37.359375 49.078125 39.65625 45.90625 
L 39.65625 71.578125 
L 48.390625 71.578125 
L 48.390625 0 
z
M 12.453125 25.875 
Q 12.453125 15.921875 16.640625 10.984375 
Q 20.84375 6.0625 26.5625 6.0625 
Q 32.328125 6.0625 36.34375 10.765625 
Q 40.375 15.484375 40.375 25.140625 
Q 40.375 35.796875 36.265625 40.765625 
Q 32.171875 45.75 26.171875 45.75 
Q 20.3125 45.75 16.375 40.96875 
Q 12.453125 36.1875 12.453125 25.875 
z
" id="ArialMT-64"/>
     <path d="M 52.828125 42.09375 
L 5.5625 42.09375 
L 5.5625 50.296875 
L 52.828125 50.296875 
z
M 52.828125 20.359375 
L 5.5625 20.359375 
L 5.5625 28.5625 
L 52.828125 28.5625 
z
" id="ArialMT-3d"/>
     <path d="M 3.171875 21.484375 
L 3.171875 30.328125 
L 30.171875 30.328125 
L 30.171875 21.484375 
z
" id="ArialMT-2d"/>
     <path d="M 4.203125 18.890625 
L 12.984375 20.0625 
Q 14.5 12.59375 18.140625 9.296875 
Q 21.78125 6 27 6 
Q 33.203125 6 37.46875 10.296875 
Q 41.75 14.59375 41.75 20.953125 
Q 41.75 27 37.796875 30.921875 
Q 33.84375 34.859375 27.734375 34.859375 
Q 25.25 34.859375 21.53125 33.890625 
L 22.515625 41.609375 
Q 23.390625 41.5 23.921875 41.5 
Q 29.546875 41.5 34.03125 44.421875 
Q 38.53125 47.359375 38.53125 53.46875 
Q 38.53125 58.296875 35.25 61.46875 
Q 31.984375 64.65625 26.8125 64.65625 
Q 21.6875 64.65625 18.265625 61.421875 
Q 14.84375 58.203125 13.875 51.765625 
L 5.078125 53.328125 
Q 6.6875 62.15625 12.390625 67.015625 
Q 18.109375 71.875 26.609375 71.875 
Q 32.46875 71.875 37.390625 69.359375 
Q 42.328125 66.84375 44.9375 62.5 
Q 47.5625 58.15625 47.5625 53.265625 
Q 47.5625 48.640625 45.0625 44.828125 
Q 42.578125 41.015625 37.703125 38.765625 
Q 44.046875 37.3125 47.5625 32.6875 
Q 51.078125 28.078125 51.078125 21.140625 
Q 51.078125 11.765625 44.234375 5.25 
Q 37.40625 -1.265625 26.953125 -1.265625 
Q 17.53125 -1.265625 11.296875 4.34375 
Q 5.078125 9.96875 4.203125 18.890625 
z
" id="ArialMT-33"/>
     <path d="M 6.546875 61.375 
L 6.546875 71.578125 
L 15.328125 71.578125 
L 15.328125 61.375 
z
M -4.59375 -20.125 
L -2.9375 -12.640625 
Q -0.296875 -13.328125 1.21875 -13.328125 
Q 3.90625 -13.328125 5.21875 -11.546875 
Q 6.546875 -9.765625 6.546875 -2.640625 
L 6.546875 51.859375 
L 15.328125 51.859375 
L 15.328125 -2.828125 
Q 15.328125 -12.40625 12.84375 -16.15625 
Q 9.671875 -21.046875 2.296875 -21.046875 
Q -1.265625 -21.046875 -4.59375 -20.125 
z
" id="ArialMT-6a"/>
    </defs>
    <g style="fill:#262626;" transform="translate(148.510366 42.01375)scale(0.22 -0.22)">
     <use xlink:href="#ArialMT-64"/>
     <use x="55.615234" xlink:href="#ArialMT-61"/>
     <use x="111.230469" xlink:href="#ArialMT-74"/>
     <use x="139.013672" xlink:href="#ArialMT-61"/>
     <use x="194.628906" xlink:href="#ArialMT-73"/>
     <use x="244.628906" xlink:href="#ArialMT-65"/>
     <use x="300.244141" xlink:href="#ArialMT-74"/>
     <use x="328.027344" xlink:href="#ArialMT-20"/>
     <use x="355.810547" xlink:href="#ArialMT-3d"/>
     <use x="414.208984" xlink:href="#ArialMT-20"/>
     <use x="441.992188" xlink:href="#ArialMT-6d"/>
     <use x="525.292969" xlink:href="#ArialMT-6e"/>
     <use x="580.908203" xlink:href="#ArialMT-69"/>
     <use x="603.125" xlink:href="#ArialMT-73"/>
     <use x="653.125" xlink:href="#ArialMT-74"/>
     <use x="680.908203" xlink:href="#ArialMT-2d"/>
     <use x="714.208984" xlink:href="#ArialMT-33"/>
     <use x="769.824219" xlink:href="#ArialMT-2d"/>
     <use x="803.125" xlink:href="#ArialMT-64"/>
     <use x="858.740234" xlink:href="#ArialMT-69"/>
     <use x="880.957031" xlink:href="#ArialMT-67"/>
     <use x="936.572266" xlink:href="#ArialMT-69"/>
     <use x="958.789062" xlink:href="#ArialMT-74"/>
     <use x="986.572266" xlink:href="#ArialMT-73"/>
     <use x="1036.572266" xlink:href="#ArialMT-2d"/>
     <use x="1069.873047" xlink:href="#ArialMT-6d"/>
     <use x="1153.173828" xlink:href="#ArialMT-61"/>
     <use x="1208.789062" xlink:href="#ArialMT-6a"/>
    </g>
   </g>
   <g id="PathCollection_4">
    <path clip-path="url(#p914ce1ec9d)" d="M 144.016129 173.494593 
L 151.912008 173.494593 
L 151.912008 165.598714 
L 144.016129 165.598714 
z
" style="fill:#ff0000;stroke:#ff0000;stroke-width:2.3625;"/>
    <path clip-path="url(#p914ce1ec9d)" d="M 234.649077 93.122261 
L 242.544956 93.122261 
L 242.544956 85.226382 
L 234.649077 85.226382 
z
" style="fill:#ff0000;stroke:#ff0000;stroke-width:2.3625;"/>
    <path clip-path="url(#p914ce1ec9d)" d="M 325.282026 115.06837 
L 333.177905 115.06837 
L 333.177905 107.172491 
L 325.282026 107.172491 
z
" style="fill:#ff0000;stroke:#ff0000;stroke-width:2.3625;"/>
    <path clip-path="url(#p914ce1ec9d)" d="M 415.914974 68.913811 
L 423.810853 68.913811 
L 423.810853 61.017932 
L 415.914974 61.017932 
z
" style="fill:#ff0000;stroke:#ff0000;stroke-width:2.3625;"/>
   </g>
   <g id="line2d_24">
    <path clip-path="url(#p914ce1ec9d)" d="M 147.964069 169.546653 
L 238.597017 89.174322 
L 329.229965 111.12043 
L 419.862914 64.965872 
" style="fill:none;stroke:#ff0000;stroke-linecap:round;stroke-width:3.15;"/>
   </g>
   <g id="line2d_25">
    <path clip-path="url(#p914ce1ec9d)" d="M 147.964069 174.043679 
L 147.964069 163.935066 
" style="fill:none;stroke:#ff0000;stroke-linecap:round;stroke-width:3.15;"/>
   </g>
   <g id="line2d_26">
    <path clip-path="url(#p914ce1ec9d)" d="M 238.597017 94.782191 
L 238.597017 83.663222 
" style="fill:none;stroke:#ff0000;stroke-linecap:round;stroke-width:3.15;"/>
   </g>
   <g id="line2d_27">
    <path clip-path="url(#p914ce1ec9d)" d="M 329.229965 117.670315 
L 329.229965 105.943647 
" style="fill:none;stroke:#ff0000;stroke-linecap:round;stroke-width:3.15;"/>
   </g>
   <g id="line2d_28">
    <path clip-path="url(#p914ce1ec9d)" d="M 419.862914 66.160969 
L 419.862914 63.761744 
" style="fill:none;stroke:#ff0000;stroke-linecap:round;stroke-width:3.15;"/>
   </g>
   <g id="PathCollection_5">
    <defs>
     <path d="M 0 1.97397 
C 0.523503 1.97397 1.025635 1.76598 1.395807 1.395807 
C 1.76598 1.025635 1.97397 0.523503 1.97397 0 
C 1.97397 -0.523503 1.76598 -1.025635 1.395807 -1.395807 
C 1.025635 -1.76598 0.523503 -1.97397 0 -1.97397 
C -0.523503 -1.97397 -1.025635 -1.76598 -1.395807 -1.395807 
C -1.76598 -1.025635 -1.97397 -0.523503 -1.97397 0 
C -1.97397 0.523503 -1.76598 1.025635 -1.395807 1.395807 
C -1.025635 1.76598 -0.523503 1.97397 0 1.97397 
z
" id="C2_0_bce1a0a4b9"/>
    </defs>
    <g clip-path="url(#p914ce1ec9d)">
     <use style="fill:#008000;stroke:#008000;stroke-width:2.3625;" x="147.964069" xlink:href="#C2_0_bce1a0a4b9" y="298.493079"/>
    </g>
    <g clip-path="url(#p914ce1ec9d)">
     <use style="fill:#008000;stroke:#008000;stroke-width:2.3625;" x="238.597017" xlink:href="#C2_0_bce1a0a4b9" y="122.166458"/>
    </g>
    <g clip-path="url(#p914ce1ec9d)">
     <use style="fill:#008000;stroke:#008000;stroke-width:2.3625;" x="329.229965" xlink:href="#C2_0_bce1a0a4b9" y="138.276538"/>
    </g>
    <g clip-path="url(#p914ce1ec9d)">
     <use style="fill:#008000;stroke:#008000;stroke-width:2.3625;" x="419.862914" xlink:href="#C2_0_bce1a0a4b9" y="88.780553"/>
    </g>
   </g>
   <g id="line2d_29">
    <path clip-path="url(#p914ce1ec9d)" d="M 147.964069 298.493079 
L 238.597017 122.166458 
L 329.229965 138.276538 
L 419.862914 88.780553 
" style="fill:none;stroke:#008000;stroke-linecap:round;stroke-width:3.15;"/>
   </g>
   <g id="line2d_30">
    <path clip-path="url(#p914ce1ec9d)" d="M 0 0 
" style="fill:none;stroke:#008000;stroke-linecap:round;stroke-width:3.15;"/>
   </g>
   <g id="line2d_31">
    <path clip-path="url(#p914ce1ec9d)" d="M 0 0 
" style="fill:none;stroke:#008000;stroke-linecap:round;stroke-width:3.15;"/>
   </g>
   <g id="line2d_32">
    <path clip-path="url(#p914ce1ec9d)" d="M 0 0 
" style="fill:none;stroke:#008000;stroke-linecap:round;stroke-width:3.15;"/>
   </g>
   <g id="line2d_33">
    <path clip-path="url(#p914ce1ec9d)" d="M 0 0 
" style="fill:none;stroke:#008000;stroke-linecap:round;stroke-width:3.15;"/>
   </g>
  </g>
  <g id="axes_2">
   <g id="patch_5">
    <path d="M 491.020707 355.98625 
L 853.5525 355.98625 
L 853.5525 48.01375 
L 491.020707 48.01375 
z
" style="fill:#ffffff;"/>
   </g>
   <g id="matplotlib.axis_3">
    <g id="xtick_5">
     <g id="line2d_34"/>
     <g id="text_11">
      <!-- SA -->
      <g style="fill:#262626;" transform="translate(522.996556 377.301875)scale(0.2 -0.2)">
       <use xlink:href="#ArialMT-53"/>
       <use x="66.699219" xlink:href="#ArialMT-41"/>
      </g>
     </g>
    </g>
    <g id="xtick_6">
     <g id="line2d_35"/>
     <g id="text_12">
      <!-- GB -->
      <g style="fill:#262626;" transform="translate(612.521692 377.301875)scale(0.2 -0.2)">
       <use xlink:href="#ArialMT-47"/>
       <use x="77.783203" xlink:href="#ArialMT-42"/>
      </g>
     </g>
    </g>
    <g id="xtick_7">
     <g id="line2d_36"/>
     <g id="text_13">
      <!-- DTD -->
      <g style="fill:#262626;" transform="translate(697.051515 377.301875)scale(0.2 -0.2)">
       <use xlink:href="#ArialMT-44"/>
       <use x="72.216797" xlink:href="#ArialMT-54"/>
       <use x="133.300781" xlink:href="#ArialMT-44"/>
      </g>
     </g>
    </g>
    <g id="xtick_8">
     <g id="line2d_37"/>
     <g id="text_14">
      <!-- $LRP_{\alpha_{1.5}\beta_{0.5}}$ -->
      <g style="fill:#262626;" transform="translate(764.336026 377.58625)scale(0.2 -0.2)">
       <use transform="translate(0 0.09375)" xlink:href="#DejaVuSans-Oblique-4c"/>
       <use transform="translate(55.712891 0.09375)" xlink:href="#DejaVuSans-Oblique-52"/>
       <use transform="translate(125.195312 0.09375)" xlink:href="#DejaVuSans-Oblique-50"/>
       <use transform="translate(185.498047 -16.3125)scale(0.7)" xlink:href="#DejaVuSans-Oblique-3b1"/>
       <use transform="translate(231.640625 -27.796875)scale(0.49)" xlink:href="#DejaVuSans-31"/>
       <use transform="translate(262.815918 -27.796875)scale(0.49)" xlink:href="#DejaVuSans-2e"/>
       <use transform="translate(278.391602 -27.796875)scale(0.49)" xlink:href="#DejaVuSans-35"/>
       <use transform="translate(311.480957 -16.3125)scale(0.7)" xlink:href="#DejaVuSans-Oblique-3b2"/>
       <use transform="translate(356.153809 -27.796875)scale(0.49)" xlink:href="#DejaVuSans-30"/>
       <use transform="translate(387.329102 -27.796875)scale(0.49)" xlink:href="#DejaVuSans-2e"/>
       <use transform="translate(402.904785 -27.796875)scale(0.49)" xlink:href="#DejaVuSans-35"/>
      </g>
     </g>
    </g>
   </g>
   <g id="matplotlib.axis_4">
    <g id="ytick_5">
     <g id="line2d_38"/>
    </g>
    <g id="ytick_6">
     <g id="line2d_39"/>
    </g>
    <g id="ytick_7">
     <g id="line2d_40"/>
    </g>
    <g id="ytick_8">
     <g id="line2d_41"/>
    </g>
   </g>
   <g id="PathCollection_6">
    <defs>
     <path d="M 0 1.97397 
C 0.523503 1.97397 1.025635 1.76598 1.395807 1.395807 
C 1.76598 1.025635 1.97397 0.523503 1.97397 0 
C 1.97397 -0.523503 1.76598 -1.025635 1.395807 -1.395807 
C 1.025635 -1.76598 0.523503 -1.97397 0 -1.97397 
C -0.523503 -1.97397 -1.025635 -1.76598 -1.395807 -1.395807 
C -1.76598 -1.025635 -1.97397 -0.523503 -1.97397 0 
C -1.97397 0.523503 -1.76598 1.025635 -1.395807 1.395807 
C -1.025635 1.76598 -0.523503 1.97397 0 1.97397 
z
" id="C3_0_9233b02ac1"/>
    </defs>
    <g clip-path="url(#p5f3b32c1b6)">
     <use style="fill:#0000ff;stroke:#0000ff;stroke-width:2.3625;" x="536.337181" xlink:href="#C3_0_9233b02ac1" y="256.414716"/>
    </g>
    <g clip-path="url(#p5f3b32c1b6)">
     <use style="fill:#0000ff;stroke:#0000ff;stroke-width:2.3625;" x="626.970129" xlink:href="#C3_0_9233b02ac1" y="273.220245"/>
    </g>
    <g clip-path="url(#p5f3b32c1b6)">
     <use style="fill:#0000ff;stroke:#0000ff;stroke-width:2.3625;" x="717.603077" xlink:href="#C3_0_9233b02ac1" y="325.426363"/>
    </g>
    <g clip-path="url(#p5f3b32c1b6)">
     <use style="fill:#0000ff;stroke:#0000ff;stroke-width:2.3625;" x="808.236026" xlink:href="#C3_0_9233b02ac1" y="287.79164"/>
    </g>
   </g>
   <g id="line2d_42">
    <path clip-path="url(#p5f3b32c1b6)" d="M 536.337181 256.414716 
L 626.970129 273.220245 
L 717.603077 325.426363 
L 808.236026 287.79164 
" style="fill:none;stroke:#0000ff;stroke-linecap:round;stroke-width:3.15;"/>
   </g>
   <g id="line2d_43">
    <path clip-path="url(#p5f3b32c1b6)" d="M 536.337181 260.93298 
L 536.337181 252.557444 
" style="fill:none;stroke:#0000ff;stroke-linecap:round;stroke-width:3.15;"/>
   </g>
   <g id="line2d_44">
    <path clip-path="url(#p5f3b32c1b6)" d="M 626.970129 277.564889 
L 626.970129 269.072677 
" style="fill:none;stroke:#0000ff;stroke-linecap:round;stroke-width:3.15;"/>
   </g>
   <g id="line2d_45">
    <path clip-path="url(#p5f3b32c1b6)" d="M 717.603077 329.432912 
L 717.603077 321.525379 
" style="fill:none;stroke:#0000ff;stroke-linecap:round;stroke-width:3.15;"/>
   </g>
   <g id="line2d_46">
    <path clip-path="url(#p5f3b32c1b6)" d="M 808.236026 292.035762 
L 808.236026 283.505391 
" style="fill:none;stroke:#0000ff;stroke-linecap:round;stroke-width:3.15;"/>
   </g>
   <g id="PathCollection_7">
    <path clip-path="url(#p5f3b32c1b6)" d="M 532.389241 272.508875 
L 540.28512 272.508875 
L 540.28512 264.612996 
L 532.389241 264.612996 
z
" style="fill:#0000ff;stroke:#0000ff;stroke-width:2.3625;"/>
    <path clip-path="url(#p5f3b32c1b6)" d="M 623.02219 293.715795 
L 630.918069 293.715795 
L 630.918069 285.819916 
L 623.02219 285.819916 
z
" style="fill:#0000ff;stroke:#0000ff;stroke-width:2.3625;"/>
    <path clip-path="url(#p5f3b32c1b6)" d="M 713.655138 340.254954 
L 721.551017 340.254954 
L 721.551017 332.359075 
L 713.655138 332.359075 
z
" style="fill:#0000ff;stroke:#0000ff;stroke-width:2.3625;"/>
    <path clip-path="url(#p5f3b32c1b6)" d="M 804.288086 318.045517 
L 812.183965 318.045517 
L 812.183965 310.149638 
L 804.288086 310.149638 
z
" style="fill:#0000ff;stroke:#0000ff;stroke-width:2.3625;"/>
   </g>
   <g id="line2d_47">
    <path clip-path="url(#p5f3b32c1b6)" d="M 536.337181 268.560936 
L 626.970129 289.767856 
L 717.603077 336.307014 
L 808.236026 314.097577 
" style="fill:none;stroke:#0000ff;stroke-linecap:round;stroke-width:3.15;"/>
   </g>
   <g id="line2d_48">
    <path clip-path="url(#p5f3b32c1b6)" d="M 536.337181 271.715254 
L 536.337181 265.325611 
" style="fill:none;stroke:#0000ff;stroke-linecap:round;stroke-width:3.15;"/>
   </g>
   <g id="line2d_49">
    <path clip-path="url(#p5f3b32c1b6)" d="M 626.970129 293.483806 
L 626.970129 285.601802 
" style="fill:none;stroke:#0000ff;stroke-linecap:round;stroke-width:3.15;"/>
   </g>
   <g id="line2d_50">
    <path clip-path="url(#p5f3b32c1b6)" d="M 717.603077 341.9875 
L 717.603077 331.318949 
" style="fill:none;stroke:#0000ff;stroke-linecap:round;stroke-width:3.15;"/>
   </g>
   <g id="line2d_51">
    <path clip-path="url(#p5f3b32c1b6)" d="M 808.236026 319.44715 
L 808.236026 309.471636 
" style="fill:none;stroke:#0000ff;stroke-linecap:round;stroke-width:3.15;"/>
   </g>
   <g id="patch_6">
    <path d="M 491.020707 355.98625 
L 491.020707 48.01375 
" style="fill:none;stroke:#262626;stroke-linecap:square;stroke-linejoin:miter;stroke-width:1.25;"/>
   </g>
   <g id="patch_7">
    <path d="M 491.020707 355.98625 
L 853.5525 355.98625 
" style="fill:none;stroke:#262626;stroke-linecap:square;stroke-linejoin:miter;stroke-width:1.25;"/>
   </g>
   <g id="PathCollection_8">
    <defs>
     <path d="M 0 1.97397 
C 0.523503 1.97397 1.025635 1.76598 1.395807 1.395807 
C 1.76598 1.025635 1.97397 0.523503 1.97397 0 
C 1.97397 -0.523503 1.76598 -1.025635 1.395807 -1.395807 
C 1.025635 -1.76598 0.523503 -1.97397 0 -1.97397 
C -0.523503 -1.97397 -1.025635 -1.76598 -1.395807 -1.395807 
C -1.76598 -1.025635 -1.97397 -0.523503 -1.97397 0 
C -1.97397 0.523503 -1.76598 1.025635 -1.395807 1.395807 
C -1.025635 1.76598 -0.523503 1.97397 0 1.97397 
z
" id="C4_0_03b6ef19b0"/>
    </defs>
    <g clip-path="url(#p5f3b32c1b6)">
     <use style="fill:#ff0000;stroke:#ff0000;stroke-width:2.3625;" x="536.337181" xlink:href="#C4_0_03b6ef19b0" y="153.926167"/>
    </g>
    <g clip-path="url(#p5f3b32c1b6)">
     <use style="fill:#ff0000;stroke:#ff0000;stroke-width:2.3625;" x="626.970129" xlink:href="#C4_0_03b6ef19b0" y="119.565709"/>
    </g>
    <g clip-path="url(#p5f3b32c1b6)">
     <use style="fill:#ff0000;stroke:#ff0000;stroke-width:2.3625;" x="717.603077" xlink:href="#C4_0_03b6ef19b0" y="122.841125"/>
    </g>
    <g clip-path="url(#p5f3b32c1b6)">
     <use style="fill:#ff0000;stroke:#ff0000;stroke-width:2.3625;" x="808.236026" xlink:href="#C4_0_03b6ef19b0" y="92.296685"/>
    </g>
   </g>
   <g id="line2d_52">
    <path clip-path="url(#p5f3b32c1b6)" d="M 536.337181 153.926167 
L 626.970129 119.565709 
L 717.603077 122.841125 
L 808.236026 92.296685 
" style="fill:none;stroke:#ff0000;stroke-linecap:round;stroke-width:3.15;"/>
   </g>
   <g id="line2d_53">
    <path clip-path="url(#p5f3b32c1b6)" d="M 536.337181 156.7128 
L 536.337181 151.003138 
" style="fill:none;stroke:#ff0000;stroke-linecap:round;stroke-width:3.15;"/>
   </g>
   <g id="line2d_54">
    <path clip-path="url(#p5f3b32c1b6)" d="M 626.970129 124.480361 
L 626.970129 114.643773 
" style="fill:none;stroke:#ff0000;stroke-linecap:round;stroke-width:3.15;"/>
   </g>
   <g id="line2d_55">
    <path clip-path="url(#p5f3b32c1b6)" d="M 717.603077 125.01277 
L 717.603077 120.551265 
" style="fill:none;stroke:#ff0000;stroke-linecap:round;stroke-width:3.15;"/>
   </g>
   <g id="line2d_56">
    <path clip-path="url(#p5f3b32c1b6)" d="M 808.236026 95.362387 
L 808.236026 89.03538 
" style="fill:none;stroke:#ff0000;stroke-linecap:round;stroke-width:3.15;"/>
   </g>
   <g id="text_15">
    <!-- dataset = fashion-mnist-3-items-maj -->
    <defs>
     <path d="M 8.6875 0 
L 8.6875 45.015625 
L 0.921875 45.015625 
L 0.921875 51.859375 
L 8.6875 51.859375 
L 8.6875 57.375 
Q 8.6875 62.59375 9.625 65.140625 
Q 10.890625 68.5625 14.078125 70.671875 
Q 17.28125 72.796875 23.046875 72.796875 
Q 26.765625 72.796875 31.25 71.921875 
L 29.9375 64.265625 
Q 27.203125 64.75 24.75 64.75 
Q 20.75 64.75 19.09375 63.03125 
Q 17.4375 61.328125 17.4375 56.640625 
L 17.4375 51.859375 
L 27.546875 51.859375 
L 27.546875 45.015625 
L 17.4375 45.015625 
L 17.4375 0 
z
" id="ArialMT-66"/>
     <path d="M 6.59375 0 
L 6.59375 71.578125 
L 15.375 71.578125 
L 15.375 45.90625 
Q 21.53125 53.03125 30.90625 53.03125 
Q 36.671875 53.03125 40.921875 50.75 
Q 45.171875 48.484375 47 44.484375 
Q 48.828125 40.484375 48.828125 32.859375 
L 48.828125 0 
L 40.046875 0 
L 40.046875 32.859375 
Q 40.046875 39.453125 37.1875 42.453125 
Q 34.328125 45.453125 29.109375 45.453125 
Q 25.203125 45.453125 21.75 43.421875 
Q 18.3125 41.40625 16.84375 37.9375 
Q 15.375 34.46875 15.375 28.375 
L 15.375 0 
z
" id="ArialMT-68"/>
    </defs>
    <g style="fill:#262626;" transform="translate(497.151135 42.01375)scale(0.22 -0.22)">
     <use xlink:href="#ArialMT-64"/>
     <use x="55.615234" xlink:href="#ArialMT-61"/>
     <use x="111.230469" xlink:href="#ArialMT-74"/>
     <use x="139.013672" xlink:href="#ArialMT-61"/>
     <use x="194.628906" xlink:href="#ArialMT-73"/>
     <use x="244.628906" xlink:href="#ArialMT-65"/>
     <use x="300.244141" xlink:href="#ArialMT-74"/>
     <use x="328.027344" xlink:href="#ArialMT-20"/>
     <use x="355.810547" xlink:href="#ArialMT-3d"/>
     <use x="414.208984" xlink:href="#ArialMT-20"/>
     <use x="441.992188" xlink:href="#ArialMT-66"/>
     <use x="469.775391" xlink:href="#ArialMT-61"/>
     <use x="525.390625" xlink:href="#ArialMT-73"/>
     <use x="575.390625" xlink:href="#ArialMT-68"/>
     <use x="631.005859" xlink:href="#ArialMT-69"/>
     <use x="653.222656" xlink:href="#ArialMT-6f"/>
     <use x="708.837891" xlink:href="#ArialMT-6e"/>
     <use x="764.453125" xlink:href="#ArialMT-2d"/>
     <use x="797.753906" xlink:href="#ArialMT-6d"/>
     <use x="881.054688" xlink:href="#ArialMT-6e"/>
     <use x="936.669922" xlink:href="#ArialMT-69"/>
     <use x="958.886719" xlink:href="#ArialMT-73"/>
     <use x="1008.886719" xlink:href="#ArialMT-74"/>
     <use x="1036.669922" xlink:href="#ArialMT-2d"/>
     <use x="1069.970703" xlink:href="#ArialMT-33"/>
     <use x="1125.585938" xlink:href="#ArialMT-2d"/>
     <use x="1158.886719" xlink:href="#ArialMT-69"/>
     <use x="1181.103516" xlink:href="#ArialMT-74"/>
     <use x="1208.886719" xlink:href="#ArialMT-65"/>
     <use x="1264.501953" xlink:href="#ArialMT-6d"/>
     <use x="1347.802734" xlink:href="#ArialMT-73"/>
     <use x="1397.802734" xlink:href="#ArialMT-2d"/>
     <use x="1431.103516" xlink:href="#ArialMT-6d"/>
     <use x="1514.404297" xlink:href="#ArialMT-61"/>
     <use x="1570.019531" xlink:href="#ArialMT-6a"/>
    </g>
   </g>
   <g id="PathCollection_9">
    <path clip-path="url(#p5f3b32c1b6)" d="M 532.389241 175.217305 
L 540.28512 175.217305 
L 540.28512 167.321426 
L 532.389241 167.321426 
z
" style="fill:#ff0000;stroke:#ff0000;stroke-width:2.3625;"/>
    <path clip-path="url(#p5f3b32c1b6)" d="M 623.02219 103.981006 
L 630.918069 103.981006 
L 630.918069 96.085127 
L 623.02219 96.085127 
z
" style="fill:#ff0000;stroke:#ff0000;stroke-width:2.3625;"/>
    <path clip-path="url(#p5f3b32c1b6)" d="M 713.655138 114.0749 
L 721.551017 114.0749 
L 721.551017 106.179021 
L 713.655138 106.179021 
z
" style="fill:#ff0000;stroke:#ff0000;stroke-width:2.3625;"/>
    <path clip-path="url(#p5f3b32c1b6)" d="M 804.288086 83.326175 
L 812.183965 83.326175 
L 812.183965 75.430296 
L 804.288086 75.430296 
z
" style="fill:#ff0000;stroke:#ff0000;stroke-width:2.3625;"/>
   </g>
   <g id="line2d_57">
    <path clip-path="url(#p5f3b32c1b6)" d="M 536.337181 171.269365 
L 626.970129 100.033066 
L 717.603077 110.12696 
L 808.236026 79.378235 
" style="fill:none;stroke:#ff0000;stroke-linecap:round;stroke-width:3.15;"/>
   </g>
   <g id="line2d_58">
    <path clip-path="url(#p5f3b32c1b6)" d="M 536.337181 176.036952 
L 536.337181 166.781621 
" style="fill:none;stroke:#ff0000;stroke-linecap:round;stroke-width:3.15;"/>
   </g>
   <g id="line2d_59">
    <path clip-path="url(#p5f3b32c1b6)" d="M 626.970129 103.062755 
L 626.970129 97.08605 
" style="fill:none;stroke:#ff0000;stroke-linecap:round;stroke-width:3.15;"/>
   </g>
   <g id="line2d_60">
    <path clip-path="url(#p5f3b32c1b6)" d="M 717.603077 113.757034 
L 717.603077 106.652088 
" style="fill:none;stroke:#ff0000;stroke-linecap:round;stroke-width:3.15;"/>
   </g>
   <g id="line2d_61">
    <path clip-path="url(#p5f3b32c1b6)" d="M 808.236026 81.585743 
L 808.236026 77.59876 
" style="fill:none;stroke:#ff0000;stroke-linecap:round;stroke-width:3.15;"/>
   </g>
   <g id="PathCollection_10">
    <defs>
     <path d="M 0 1.97397 
C 0.523503 1.97397 1.025635 1.76598 1.395807 1.395807 
C 1.76598 1.025635 1.97397 0.523503 1.97397 0 
C 1.97397 -0.523503 1.76598 -1.025635 1.395807 -1.395807 
C 1.025635 -1.76598 0.523503 -1.97397 0 -1.97397 
C -0.523503 -1.97397 -1.025635 -1.76598 -1.395807 -1.395807 
C -1.76598 -1.025635 -1.97397 -0.523503 -1.97397 0 
C -1.97397 0.523503 -1.76598 1.025635 -1.395807 1.395807 
C -1.025635 1.76598 -0.523503 1.97397 0 1.97397 
z
" id="C5_0_49ed838e0e"/>
    </defs>
    <g clip-path="url(#p5f3b32c1b6)">
     <use style="fill:#008000;stroke:#008000;stroke-width:2.3625;" x="536.337181" xlink:href="#C5_0_49ed838e0e" y="270.844419"/>
    </g>
    <g clip-path="url(#p5f3b32c1b6)">
     <use style="fill:#008000;stroke:#008000;stroke-width:2.3625;" x="626.970129" xlink:href="#C5_0_49ed838e0e" y="144.743009"/>
    </g>
    <g clip-path="url(#p5f3b32c1b6)">
     <use style="fill:#008000;stroke:#008000;stroke-width:2.3625;" x="717.603077" xlink:href="#C5_0_49ed838e0e" y="155.559654"/>
    </g>
    <g clip-path="url(#p5f3b32c1b6)">
     <use style="fill:#008000;stroke:#008000;stroke-width:2.3625;" x="808.236026" xlink:href="#C5_0_49ed838e0e" y="91.814187"/>
    </g>
   </g>
   <g id="line2d_62">
    <path clip-path="url(#p5f3b32c1b6)" d="M 536.337181 270.844419 
L 626.970129 144.743009 
L 717.603077 155.559654 
L 808.236026 91.814187 
" style="fill:none;stroke:#008000;stroke-linecap:round;stroke-width:3.15;"/>
   </g>
   <g id="line2d_63">
    <path clip-path="url(#p5f3b32c1b6)" d="M 0 0 
" style="fill:none;stroke:#008000;stroke-linecap:round;stroke-width:3.15;"/>
   </g>
   <g id="line2d_64">
    <path clip-path="url(#p5f3b32c1b6)" d="M 0 0 
" style="fill:none;stroke:#008000;stroke-linecap:round;stroke-width:3.15;"/>
   </g>
   <g id="line2d_65">
    <path clip-path="url(#p5f3b32c1b6)" d="M 0 0 
" style="fill:none;stroke:#008000;stroke-linecap:round;stroke-width:3.15;"/>
   </g>
   <g id="line2d_66">
    <path clip-path="url(#p5f3b32c1b6)" d="M 0 0 
" style="fill:none;stroke:#008000;stroke-linecap:round;stroke-width:3.15;"/>
   </g>
  </g>
  <g id="legend_1">
   <g id="text_16">
    <!-- architecture_name -->
    <defs>
     <path d="M 40.4375 19 
L 49.078125 17.875 
Q 47.65625 8.9375 41.8125 3.875 
Q 35.984375 -1.171875 27.484375 -1.171875 
Q 16.84375 -1.171875 10.375 5.78125 
Q 3.90625 12.75 3.90625 25.734375 
Q 3.90625 34.125 6.6875 40.421875 
Q 9.46875 46.734375 15.15625 49.875 
Q 20.84375 53.03125 27.546875 53.03125 
Q 35.984375 53.03125 41.359375 48.75 
Q 46.734375 44.484375 48.25 36.625 
L 39.703125 35.296875 
Q 38.484375 40.53125 35.375 43.15625 
Q 32.28125 45.796875 27.875 45.796875 
Q 21.234375 45.796875 17.078125 41.03125 
Q 12.9375 36.28125 12.9375 25.984375 
Q 12.9375 15.53125 16.9375 10.796875 
Q 20.953125 6.0625 27.390625 6.0625 
Q 32.5625 6.0625 36.03125 9.234375 
Q 39.5 12.40625 40.4375 19 
z
" id="ArialMT-63"/>
     <path d="M 40.578125 0 
L 40.578125 7.625 
Q 34.515625 -1.171875 24.125 -1.171875 
Q 19.53125 -1.171875 15.546875 0.578125 
Q 11.578125 2.34375 9.640625 5 
Q 7.71875 7.671875 6.9375 11.53125 
Q 6.390625 14.109375 6.390625 19.734375 
L 6.390625 51.859375 
L 15.1875 51.859375 
L 15.1875 23.09375 
Q 15.1875 16.21875 15.71875 13.8125 
Q 16.546875 10.359375 19.234375 8.375 
Q 21.921875 6.390625 25.875 6.390625 
Q 29.828125 6.390625 33.296875 8.421875 
Q 36.765625 10.453125 38.203125 13.9375 
Q 39.65625 17.4375 39.65625 24.078125 
L 39.65625 51.859375 
L 48.4375 51.859375 
L 48.4375 0 
z
" id="ArialMT-75"/>
     <path d="M -1.515625 -19.875 
L -1.515625 -13.53125 
L 56.734375 -13.53125 
L 56.734375 -19.875 
z
" id="ArialMT-5f"/>
    </defs>
    <g style="fill:#262626;" transform="translate(866.875203 149.868617)scale(0.187 -0.187)">
     <use xlink:href="#ArialMT-61"/>
     <use x="55.615234" xlink:href="#ArialMT-72"/>
     <use x="88.916016" xlink:href="#ArialMT-63"/>
     <use x="138.916016" xlink:href="#ArialMT-68"/>
     <use x="194.53125" xlink:href="#ArialMT-69"/>
     <use x="216.748047" xlink:href="#ArialMT-74"/>
     <use x="244.53125" xlink:href="#ArialMT-65"/>
     <use x="300.146484" xlink:href="#ArialMT-63"/>
     <use x="350.146484" xlink:href="#ArialMT-74"/>
     <use x="377.929688" xlink:href="#ArialMT-75"/>
     <use x="433.544922" xlink:href="#ArialMT-72"/>
     <use x="466.845703" xlink:href="#ArialMT-65"/>
     <use x="522.460938" xlink:href="#ArialMT-5f"/>
     <use x="578.076172" xlink:href="#ArialMT-6e"/>
     <use x="633.691406" xlink:href="#ArialMT-61"/>
     <use x="689.306641" xlink:href="#ArialMT-6d"/>
     <use x="772.607422" xlink:href="#ArialMT-65"/>
    </g>
   </g>
   <g id="PathCollection_11">
    <path d="M 881.865625 174.624837 
C 882.389128 174.624837 882.89126 174.416847 883.261432 174.046675 
C 883.631605 173.676502 883.839595 173.17437 883.839595 172.650867 
C 883.839595 172.127364 883.631605 171.625232 883.261432 171.25506 
C 882.89126 170.884887 882.389128 170.676897 881.865625 170.676897 
C 881.342122 170.676897 880.83999 170.884887 880.469818 171.25506 
C 880.099645 171.625232 879.891655 172.127364 879.891655 172.650867 
C 879.891655 173.17437 880.099645 173.676502 880.469818 174.046675 
C 880.83999 174.416847 881.342122 174.624837 881.865625 174.624837 
z
" style="fill:#0000ff;stroke:#0000ff;stroke-width:2.3625;"/>
   </g>
   <g id="text_17">
    <!-- Deep -->
    <defs>
     <path d="M 6.59375 -19.875 
L 6.59375 51.859375 
L 14.59375 51.859375 
L 14.59375 45.125 
Q 17.4375 49.078125 21 51.046875 
Q 24.5625 53.03125 29.640625 53.03125 
Q 36.28125 53.03125 41.359375 49.609375 
Q 46.4375 46.1875 49.015625 39.953125 
Q 51.609375 33.734375 51.609375 26.3125 
Q 51.609375 18.359375 48.75 11.984375 
Q 45.90625 5.609375 40.453125 2.21875 
Q 35.015625 -1.171875 29 -1.171875 
Q 24.609375 -1.171875 21.109375 0.6875 
Q 17.625 2.546875 15.375 5.375 
L 15.375 -19.875 
z
M 14.546875 25.640625 
Q 14.546875 15.625 18.59375 10.84375 
Q 22.65625 6.0625 28.421875 6.0625 
Q 34.28125 6.0625 38.453125 11.015625 
Q 42.625 15.96875 42.625 26.375 
Q 42.625 36.28125 38.546875 41.203125 
Q 34.46875 46.140625 28.8125 46.140625 
Q 23.1875 46.140625 18.859375 40.890625 
Q 14.546875 35.640625 14.546875 25.640625 
z
" id="ArialMT-70"/>
    </defs>
    <g style="fill:#262626;" transform="translate(917.865625 177.900867)scale(0.2 -0.2)">
     <use xlink:href="#ArialMT-44"/>
     <use x="72.216797" xlink:href="#ArialMT-65"/>
     <use x="127.832031" xlink:href="#ArialMT-65"/>
     <use x="183.447266" xlink:href="#ArialMT-70"/>
    </g>
   </g>
   <g id="PathCollection_12">
    <path d="M 877.917685 205.133182 
L 885.813565 205.133182 
L 885.813565 197.237303 
L 877.917685 197.237303 
z
" style="fill:#0000ff;stroke:#0000ff;stroke-width:2.3625;"/>
   </g>
   <g id="text_18">
    <!-- Deep-SD -->
    <g style="fill:#262626;" transform="translate(917.865625 206.435242)scale(0.2 -0.2)">
     <use xlink:href="#ArialMT-44"/>
     <use x="72.216797" xlink:href="#ArialMT-65"/>
     <use x="127.832031" xlink:href="#ArialMT-65"/>
     <use x="183.447266" xlink:href="#ArialMT-70"/>
     <use x="239.0625" xlink:href="#ArialMT-2d"/>
     <use x="272.363281" xlink:href="#ArialMT-53"/>
     <use x="339.0625" xlink:href="#ArialMT-44"/>
    </g>
   </g>
   <g id="PathCollection_13">
    <path d="M 881.865625 231.449837 
C 882.389128 231.449837 882.89126 231.241847 883.261432 230.871675 
C 883.631605 230.501502 883.839595 229.99937 883.839595 229.475867 
C 883.839595 228.952364 883.631605 228.450232 883.261432 228.08006 
C 882.89126 227.709887 882.389128 227.501897 881.865625 227.501897 
C 881.342122 227.501897 880.83999 227.709887 880.469818 228.08006 
C 880.099645 228.450232 879.891655 228.952364 879.891655 229.475867 
C 879.891655 229.99937 880.099645 230.501502 880.469818 230.871675 
C 880.83999 231.241847 881.342122 231.449837 881.865625 231.449837 
z
" style="fill:#ff0000;stroke:#ff0000;stroke-width:2.3625;"/>
   </g>
   <g id="text_19">
    <!-- R-LSTM -->
    <defs>
     <path d="M 7.859375 0 
L 7.859375 71.578125 
L 39.59375 71.578125 
Q 49.171875 71.578125 54.140625 69.640625 
Q 59.125 67.71875 62.109375 62.828125 
Q 65.09375 57.953125 65.09375 52.046875 
Q 65.09375 44.4375 60.15625 39.203125 
Q 55.21875 33.984375 44.921875 32.5625 
Q 48.6875 30.765625 50.640625 29 
Q 54.78125 25.203125 58.5 19.484375 
L 70.953125 0 
L 59.03125 0 
L 49.5625 14.890625 
Q 45.40625 21.34375 42.71875 24.75 
Q 40.046875 28.171875 37.921875 29.53125 
Q 35.796875 30.90625 33.59375 31.453125 
Q 31.984375 31.78125 28.328125 31.78125 
L 17.328125 31.78125 
L 17.328125 0 
z
M 17.328125 39.984375 
L 37.703125 39.984375 
Q 44.1875 39.984375 47.84375 41.328125 
Q 51.515625 42.671875 53.421875 45.625 
Q 55.328125 48.578125 55.328125 52.046875 
Q 55.328125 57.125 51.640625 60.390625 
Q 47.953125 63.671875 39.984375 63.671875 
L 17.328125 63.671875 
z
" id="ArialMT-52"/>
     <path d="M 7.328125 0 
L 7.328125 71.578125 
L 16.796875 71.578125 
L 16.796875 8.453125 
L 52.046875 8.453125 
L 52.046875 0 
z
" id="ArialMT-4c"/>
     <path d="M 7.421875 0 
L 7.421875 71.578125 
L 21.6875 71.578125 
L 38.625 20.90625 
Q 40.96875 13.8125 42.046875 10.296875 
Q 43.265625 14.203125 45.84375 21.78125 
L 62.984375 71.578125 
L 75.734375 71.578125 
L 75.734375 0 
L 66.609375 0 
L 66.609375 59.90625 
L 45.796875 0 
L 37.25 0 
L 16.546875 60.9375 
L 16.546875 0 
z
" id="ArialMT-4d"/>
    </defs>
    <g style="fill:#262626;" transform="translate(917.865625 234.725867)scale(0.2 -0.2)">
     <use xlink:href="#ArialMT-52"/>
     <use x="72.216797" xlink:href="#ArialMT-2d"/>
     <use x="105.517578" xlink:href="#ArialMT-4c"/>
     <use x="161.132812" xlink:href="#ArialMT-53"/>
     <use x="227.832031" xlink:href="#ArialMT-54"/>
     <use x="288.916016" xlink:href="#ArialMT-4d"/>
    </g>
   </g>
   <g id="PathCollection_14">
    <path d="M 877.917685 261.714432 
L 885.813565 261.714432 
L 885.813565 253.818553 
L 877.917685 253.818553 
z
" style="fill:#ff0000;stroke:#ff0000;stroke-width:2.3625;"/>
   </g>
   <g id="text_20">
    <!-- R-LSTM-SD -->
    <g style="fill:#262626;" transform="translate(917.865625 263.016492)scale(0.2 -0.2)">
     <use xlink:href="#ArialMT-52"/>
     <use x="72.216797" xlink:href="#ArialMT-2d"/>
     <use x="105.517578" xlink:href="#ArialMT-4c"/>
     <use x="161.132812" xlink:href="#ArialMT-53"/>
     <use x="227.832031" xlink:href="#ArialMT-54"/>
     <use x="288.916016" xlink:href="#ArialMT-4d"/>
     <use x="372.216797" xlink:href="#ArialMT-2d"/>
     <use x="405.517578" xlink:href="#ArialMT-53"/>
     <use x="472.216797" xlink:href="#ArialMT-44"/>
    </g>
   </g>
   <g id="PathCollection_15">
    <path d="M 881.865625 288.031087 
C 882.389128 288.031087 882.89126 287.823097 883.261432 287.452925 
C 883.631605 287.082752 883.839595 286.58062 883.839595 286.057117 
C 883.839595 285.533614 883.631605 285.031482 883.261432 284.66131 
C 882.89126 284.291137 882.389128 284.083147 881.865625 284.083147 
C 881.342122 284.083147 880.83999 284.291137 880.469818 284.66131 
C 880.099645 285.031482 879.891655 285.533614 879.891655 286.057117 
C 879.891655 286.58062 880.099645 287.082752 880.469818 287.452925 
C 880.83999 287.823097 881.342122 288.031087 881.865625 288.031087 
z
" style="fill:#008000;stroke:#008000;stroke-width:2.3625;"/>
   </g>
   <g id="text_21">
    <!-- rgru -->
    <g style="fill:#262626;" transform="translate(917.865625 291.307117)scale(0.2 -0.2)">
     <use xlink:href="#ArialMT-72"/>
     <use x="33.300781" xlink:href="#ArialMT-67"/>
     <use x="88.916016" xlink:href="#ArialMT-72"/>
     <use x="122.216797" xlink:href="#ArialMT-75"/>
    </g>
   </g>
  </g>
 </g>
 <defs>
  <clipPath id="p914ce1ec9d">
   <rect height="307.9725" width="362.531793" x="102.647594" y="48.01375"/>
  </clipPath>
  <clipPath id="p5f3b32c1b6">
   <rect height="307.9725" width="362.531793" x="491.020707" y="48.01375"/>
  </clipPath>
 </defs>
</svg>
