<?xml version="1.0" encoding="utf-8" standalone="no"?>
<!DOCTYPE svg PUBLIC "-//W3C//DTD SVG 1.1//EN"
  "http://www.w3.org/Graphics/SVG/1.1/DTD/svg11.dtd">
<!-- Created with matplotlib (http://matplotlib.org/) -->
<svg height="360pt" version="1.1" viewBox="0 0 576 360" width="576pt" xmlns="http://www.w3.org/2000/svg" xmlns:xlink="http://www.w3.org/1999/xlink">
 <defs>
  <style type="text/css">
*{stroke-linecap:butt;stroke-linejoin:round;}
  </style>
 </defs>
 <g id="figure_1">
  <g id="patch_1">
   <path d="M 0 360 
L 576 360 
L 576 0 
L 0 0 
z
" style="fill:#ffffff;"/>
  </g>
  <g id="axes_1">
   <g id="patch_2">
    <path d="M 72 315 
L 518.4 315 
L 518.4 43.2 
L 72 43.2 
z
" style="fill:#ffffff;"/>
   </g>
   <g id="matplotlib.axis_1">
    <g id="xtick_1">
     <g id="line2d_1">
      <defs>
       <path d="M 0 0 
L 0 3.5 
" id="md8498bbe62" style="stroke:#000000;stroke-width:0.8;"/>
      </defs>
      <g>
       <use style="stroke:#000000;stroke-width:0.8;" x="92.290909" xlink:href="#md8498bbe62" y="315"/>
      </g>
     </g>
     <g id="text_1">
      <!-- 1 -->
      <defs>
       <path d="M 12.40625 8.296875 
L 28.515625 8.296875 
L 28.515625 63.921875 
L 10.984375 60.40625 
L 10.984375 69.390625 
L 28.421875 72.90625 
L 38.28125 72.90625 
L 38.28125 8.296875 
L 54.390625 8.296875 
L 54.390625 0 
L 12.40625 0 
z
" id="DejaVuSans-31"/>
      </defs>
      <g transform="translate(89.109659 329.598437)scale(0.1 -0.1)">
       <use xlink:href="#DejaVuSans-31"/>
      </g>
     </g>
    </g>
    <g id="xtick_2">
     <g id="line2d_2">
      <g>
       <use style="stroke:#000000;stroke-width:0.8;" x="159.927273" xlink:href="#md8498bbe62" y="315"/>
      </g>
     </g>
     <g id="text_2">
      <!-- 2 -->
      <defs>
       <path d="M 19.1875 8.296875 
L 53.609375 8.296875 
L 53.609375 0 
L 7.328125 0 
L 7.328125 8.296875 
Q 12.9375 14.109375 22.625 23.890625 
Q 32.328125 33.6875 34.8125 36.53125 
Q 39.546875 41.84375 41.421875 45.53125 
Q 43.3125 49.21875 43.3125 52.78125 
Q 43.3125 58.59375 39.234375 62.25 
Q 35.15625 65.921875 28.609375 65.921875 
Q 23.96875 65.921875 18.8125 64.3125 
Q 13.671875 62.703125 7.8125 59.421875 
L 7.8125 69.390625 
Q 13.765625 71.78125 18.9375 73 
Q 24.125 74.21875 28.421875 74.21875 
Q 39.75 74.21875 46.484375 68.546875 
Q 53.21875 62.890625 53.21875 53.421875 
Q 53.21875 48.921875 51.53125 44.890625 
Q 49.859375 40.875 45.40625 35.40625 
Q 44.1875 33.984375 37.640625 27.21875 
Q 31.109375 20.453125 19.1875 8.296875 
z
" id="DejaVuSans-32"/>
      </defs>
      <g transform="translate(156.746023 329.598437)scale(0.1 -0.1)">
       <use xlink:href="#DejaVuSans-32"/>
      </g>
     </g>
    </g>
    <g id="xtick_3">
     <g id="line2d_3">
      <g>
       <use style="stroke:#000000;stroke-width:0.8;" x="227.563636" xlink:href="#md8498bbe62" y="315"/>
      </g>
     </g>
     <g id="text_3">
      <!-- 3 -->
      <defs>
       <path d="M 40.578125 39.3125 
Q 47.65625 37.796875 51.625 33 
Q 55.609375 28.21875 55.609375 21.1875 
Q 55.609375 10.40625 48.1875 4.484375 
Q 40.765625 -1.421875 27.09375 -1.421875 
Q 22.515625 -1.421875 17.65625 -0.515625 
Q 12.796875 0.390625 7.625 2.203125 
L 7.625 11.71875 
Q 11.71875 9.328125 16.59375 8.109375 
Q 21.484375 6.890625 26.8125 6.890625 
Q 36.078125 6.890625 40.9375 10.546875 
Q 45.796875 14.203125 45.796875 21.1875 
Q 45.796875 27.640625 41.28125 31.265625 
Q 36.765625 34.90625 28.71875 34.90625 
L 20.21875 34.90625 
L 20.21875 43.015625 
L 29.109375 43.015625 
Q 36.375 43.015625 40.234375 45.921875 
Q 44.09375 48.828125 44.09375 54.296875 
Q 44.09375 59.90625 40.109375 62.90625 
Q 36.140625 65.921875 28.71875 65.921875 
Q 24.65625 65.921875 20.015625 65.03125 
Q 15.375 64.15625 9.8125 62.3125 
L 9.8125 71.09375 
Q 15.4375 72.65625 20.34375 73.4375 
Q 25.25 74.21875 29.59375 74.21875 
Q 40.828125 74.21875 47.359375 69.109375 
Q 53.90625 64.015625 53.90625 55.328125 
Q 53.90625 49.265625 50.4375 45.09375 
Q 46.96875 40.921875 40.578125 39.3125 
z
" id="DejaVuSans-33"/>
      </defs>
      <g transform="translate(224.382386 329.598437)scale(0.1 -0.1)">
       <use xlink:href="#DejaVuSans-33"/>
      </g>
     </g>
    </g>
    <g id="xtick_4">
     <g id="line2d_4">
      <g>
       <use style="stroke:#000000;stroke-width:0.8;" x="295.2" xlink:href="#md8498bbe62" y="315"/>
      </g>
     </g>
     <g id="text_4">
      <!-- 4 -->
      <defs>
       <path d="M 37.796875 64.3125 
L 12.890625 25.390625 
L 37.796875 25.390625 
z
M 35.203125 72.90625 
L 47.609375 72.90625 
L 47.609375 25.390625 
L 58.015625 25.390625 
L 58.015625 17.1875 
L 47.609375 17.1875 
L 47.609375 0 
L 37.796875 0 
L 37.796875 17.1875 
L 4.890625 17.1875 
L 4.890625 26.703125 
z
" id="DejaVuSans-34"/>
      </defs>
      <g transform="translate(292.01875 329.598437)scale(0.1 -0.1)">
       <use xlink:href="#DejaVuSans-34"/>
      </g>
     </g>
    </g>
    <g id="xtick_5">
     <g id="line2d_5">
      <g>
       <use style="stroke:#000000;stroke-width:0.8;" x="362.836364" xlink:href="#md8498bbe62" y="315"/>
      </g>
     </g>
     <g id="text_5">
      <!-- 5 -->
      <defs>
       <path d="M 10.796875 72.90625 
L 49.515625 72.90625 
L 49.515625 64.59375 
L 19.828125 64.59375 
L 19.828125 46.734375 
Q 21.96875 47.46875 24.109375 47.828125 
Q 26.265625 48.1875 28.421875 48.1875 
Q 40.625 48.1875 47.75 41.5 
Q 54.890625 34.8125 54.890625 23.390625 
Q 54.890625 11.625 47.5625 5.09375 
Q 40.234375 -1.421875 26.90625 -1.421875 
Q 22.3125 -1.421875 17.546875 -0.640625 
Q 12.796875 0.140625 7.71875 1.703125 
L 7.71875 11.625 
Q 12.109375 9.234375 16.796875 8.0625 
Q 21.484375 6.890625 26.703125 6.890625 
Q 35.15625 6.890625 40.078125 11.328125 
Q 45.015625 15.765625 45.015625 23.390625 
Q 45.015625 31 40.078125 35.4375 
Q 35.15625 39.890625 26.703125 39.890625 
Q 22.75 39.890625 18.8125 39.015625 
Q 14.890625 38.140625 10.796875 36.28125 
z
" id="DejaVuSans-35"/>
      </defs>
      <g transform="translate(359.655114 329.598437)scale(0.1 -0.1)">
       <use xlink:href="#DejaVuSans-35"/>
      </g>
     </g>
    </g>
    <g id="xtick_6">
     <g id="line2d_6">
      <g>
       <use style="stroke:#000000;stroke-width:0.8;" x="430.472727" xlink:href="#md8498bbe62" y="315"/>
      </g>
     </g>
     <g id="text_6">
      <!-- 6 -->
      <defs>
       <path d="M 33.015625 40.375 
Q 26.375 40.375 22.484375 35.828125 
Q 18.609375 31.296875 18.609375 23.390625 
Q 18.609375 15.53125 22.484375 10.953125 
Q 26.375 6.390625 33.015625 6.390625 
Q 39.65625 6.390625 43.53125 10.953125 
Q 47.40625 15.53125 47.40625 23.390625 
Q 47.40625 31.296875 43.53125 35.828125 
Q 39.65625 40.375 33.015625 40.375 
z
M 52.59375 71.296875 
L 52.59375 62.3125 
Q 48.875 64.0625 45.09375 64.984375 
Q 41.3125 65.921875 37.59375 65.921875 
Q 27.828125 65.921875 22.671875 59.328125 
Q 17.53125 52.734375 16.796875 39.40625 
Q 19.671875 43.65625 24.015625 45.921875 
Q 28.375 48.1875 33.59375 48.1875 
Q 44.578125 48.1875 50.953125 41.515625 
Q 57.328125 34.859375 57.328125 23.390625 
Q 57.328125 12.15625 50.6875 5.359375 
Q 44.046875 -1.421875 33.015625 -1.421875 
Q 20.359375 -1.421875 13.671875 8.265625 
Q 6.984375 17.96875 6.984375 36.375 
Q 6.984375 53.65625 15.1875 63.9375 
Q 23.390625 74.21875 37.203125 74.21875 
Q 40.921875 74.21875 44.703125 73.484375 
Q 48.484375 72.75 52.59375 71.296875 
z
" id="DejaVuSans-36"/>
      </defs>
      <g transform="translate(427.291477 329.598437)scale(0.1 -0.1)">
       <use xlink:href="#DejaVuSans-36"/>
      </g>
     </g>
    </g>
    <g id="xtick_7">
     <g id="line2d_7">
      <g>
       <use style="stroke:#000000;stroke-width:0.8;" x="498.109091" xlink:href="#md8498bbe62" y="315"/>
      </g>
     </g>
     <g id="text_7">
      <!-- 7 -->
      <defs>
       <path d="M 8.203125 72.90625 
L 55.078125 72.90625 
L 55.078125 68.703125 
L 28.609375 0 
L 18.3125 0 
L 43.21875 64.59375 
L 8.203125 64.59375 
z
" id="DejaVuSans-37"/>
      </defs>
      <g transform="translate(494.927841 329.598437)scale(0.1 -0.1)">
       <use xlink:href="#DejaVuSans-37"/>
      </g>
     </g>
    </g>
    <g id="text_8">
     <!-- Step $i^{th}$ -->
     <defs>
      <path d="M 53.515625 70.515625 
L 53.515625 60.890625 
Q 47.90625 63.578125 42.921875 64.890625 
Q 37.9375 66.21875 33.296875 66.21875 
Q 25.25 66.21875 20.875 63.09375 
Q 16.5 59.96875 16.5 54.203125 
Q 16.5 49.359375 19.40625 46.890625 
Q 22.3125 44.4375 30.421875 42.921875 
L 36.375 41.703125 
Q 47.40625 39.59375 52.65625 34.296875 
Q 57.90625 29 57.90625 20.125 
Q 57.90625 9.515625 50.796875 4.046875 
Q 43.703125 -1.421875 29.984375 -1.421875 
Q 24.8125 -1.421875 18.96875 -0.25 
Q 13.140625 0.921875 6.890625 3.21875 
L 6.890625 13.375 
Q 12.890625 10.015625 18.65625 8.296875 
Q 24.421875 6.59375 29.984375 6.59375 
Q 38.421875 6.59375 43.015625 9.90625 
Q 47.609375 13.234375 47.609375 19.390625 
Q 47.609375 24.75 44.3125 27.78125 
Q 41.015625 30.8125 33.5 32.328125 
L 27.484375 33.5 
Q 16.453125 35.6875 11.515625 40.375 
Q 6.59375 45.0625 6.59375 53.421875 
Q 6.59375 63.09375 13.40625 68.65625 
Q 20.21875 74.21875 32.171875 74.21875 
Q 37.3125 74.21875 42.625 73.28125 
Q 47.953125 72.359375 53.515625 70.515625 
z
" id="DejaVuSans-53"/>
      <path d="M 18.3125 70.21875 
L 18.3125 54.6875 
L 36.8125 54.6875 
L 36.8125 47.703125 
L 18.3125 47.703125 
L 18.3125 18.015625 
Q 18.3125 11.328125 20.140625 9.421875 
Q 21.96875 7.515625 27.59375 7.515625 
L 36.8125 7.515625 
L 36.8125 0 
L 27.59375 0 
Q 17.1875 0 13.234375 3.875 
Q 9.28125 7.765625 9.28125 18.015625 
L 9.28125 47.703125 
L 2.6875 47.703125 
L 2.6875 54.6875 
L 9.28125 54.6875 
L 9.28125 70.21875 
z
" id="DejaVuSans-74"/>
      <path d="M 56.203125 29.59375 
L 56.203125 25.203125 
L 14.890625 25.203125 
Q 15.484375 15.921875 20.484375 11.0625 
Q 25.484375 6.203125 34.421875 6.203125 
Q 39.59375 6.203125 44.453125 7.46875 
Q 49.3125 8.734375 54.109375 11.28125 
L 54.109375 2.78125 
Q 49.265625 0.734375 44.1875 -0.34375 
Q 39.109375 -1.421875 33.890625 -1.421875 
Q 20.796875 -1.421875 13.15625 6.1875 
Q 5.515625 13.8125 5.515625 26.8125 
Q 5.515625 40.234375 12.765625 48.109375 
Q 20.015625 56 32.328125 56 
Q 43.359375 56 49.78125 48.890625 
Q 56.203125 41.796875 56.203125 29.59375 
z
M 47.21875 32.234375 
Q 47.125 39.59375 43.09375 43.984375 
Q 39.0625 48.390625 32.421875 48.390625 
Q 24.90625 48.390625 20.390625 44.140625 
Q 15.875 39.890625 15.1875 32.171875 
z
" id="DejaVuSans-65"/>
      <path d="M 18.109375 8.203125 
L 18.109375 -20.796875 
L 9.078125 -20.796875 
L 9.078125 54.6875 
L 18.109375 54.6875 
L 18.109375 46.390625 
Q 20.953125 51.265625 25.265625 53.625 
Q 29.59375 56 35.59375 56 
Q 45.5625 56 51.78125 48.09375 
Q 58.015625 40.1875 58.015625 27.296875 
Q 58.015625 14.40625 51.78125 6.484375 
Q 45.5625 -1.421875 35.59375 -1.421875 
Q 29.59375 -1.421875 25.265625 0.953125 
Q 20.953125 3.328125 18.109375 8.203125 
z
M 48.6875 27.296875 
Q 48.6875 37.203125 44.609375 42.84375 
Q 40.53125 48.484375 33.40625 48.484375 
Q 26.265625 48.484375 22.1875 42.84375 
Q 18.109375 37.203125 18.109375 27.296875 
Q 18.109375 17.390625 22.1875 11.75 
Q 26.265625 6.109375 33.40625 6.109375 
Q 40.53125 6.109375 44.609375 11.75 
Q 48.6875 17.390625 48.6875 27.296875 
z
" id="DejaVuSans-70"/>
      <path id="DejaVuSans-20"/>
      <path d="M 18.3125 75.984375 
L 27.296875 75.984375 
L 25.09375 64.59375 
L 16.109375 64.59375 
z
M 14.203125 54.6875 
L 23.1875 54.6875 
L 12.5 0 
L 3.515625 0 
z
" id="DejaVuSans-Oblique-69"/>
      <path d="M 42.28125 54.6875 
L 40.921875 47.703125 
L 23 47.703125 
L 17.1875 18.015625 
Q 16.890625 16.359375 16.75 15.234375 
Q 16.609375 14.109375 16.609375 13.484375 
Q 16.609375 10.359375 18.484375 8.9375 
Q 20.359375 7.515625 24.515625 7.515625 
L 33.59375 7.515625 
L 32.078125 0 
L 23.484375 0 
Q 15.484375 0 11.546875 3.125 
Q 7.625 6.25 7.625 12.59375 
Q 7.625 13.71875 7.765625 15.0625 
Q 7.90625 16.40625 8.203125 18.015625 
L 14.015625 47.703125 
L 6.390625 47.703125 
L 7.8125 54.6875 
L 15.28125 54.6875 
L 18.3125 70.21875 
L 27.296875 70.21875 
L 24.3125 54.6875 
z
" id="DejaVuSans-Oblique-74"/>
      <path d="M 55.71875 33.015625 
L 49.3125 0 
L 40.28125 0 
L 46.6875 32.671875 
Q 47.125 34.96875 47.359375 36.71875 
Q 47.609375 38.484375 47.609375 39.5 
Q 47.609375 43.609375 45.015625 45.890625 
Q 42.4375 48.1875 37.796875 48.1875 
Q 30.5625 48.1875 25.265625 43.296875 
Q 19.96875 38.421875 18.40625 30.328125 
L 12.5 0 
L 3.515625 0 
L 18.3125 75.984375 
L 27.296875 75.984375 
L 21.484375 46.09375 
Q 24.90625 50.6875 30.21875 53.34375 
Q 35.546875 56 41.40625 56 
Q 48.640625 56 52.609375 52.09375 
Q 56.59375 48.1875 56.59375 41.109375 
Q 56.59375 39.359375 56.375 37.359375 
Q 56.15625 35.359375 55.71875 33.015625 
z
" id="DejaVuSans-Oblique-68"/>
     </defs>
     <g transform="translate(276.7 344.878125)scale(0.1 -0.1)">
      <use transform="translate(0 0.529687)" xlink:href="#DejaVuSans-53"/>
      <use transform="translate(63.476562 0.529687)" xlink:href="#DejaVuSans-74"/>
      <use transform="translate(102.685547 0.529687)" xlink:href="#DejaVuSans-65"/>
      <use transform="translate(164.208984 0.529687)" xlink:href="#DejaVuSans-70"/>
      <use transform="translate(227.685547 0.529687)" xlink:href="#DejaVuSans-20"/>
      <use transform="translate(259.472656 0.529687)" xlink:href="#DejaVuSans-Oblique-69"/>
      <use transform="translate(294.703568 38.810937)scale(0.7)" xlink:href="#DejaVuSans-Oblique-74"/>
      <use transform="translate(322.149857 38.810937)scale(0.7)" xlink:href="#DejaVuSans-Oblique-68"/>
     </g>
    </g>
   </g>
   <g id="matplotlib.axis_2">
    <g id="ytick_1">
     <g id="line2d_8">
      <defs>
       <path d="M 0 0 
L -3.5 0 
" id="m5550c2416e" style="stroke:#000000;stroke-width:0.8;"/>
      </defs>
      <g>
       <use style="stroke:#000000;stroke-width:0.8;" x="72" xlink:href="#m5550c2416e" y="306.456811"/>
      </g>
     </g>
     <g id="text_9">
      <!-- 0.0 -->
      <defs>
       <path d="M 31.78125 66.40625 
Q 24.171875 66.40625 20.328125 58.90625 
Q 16.5 51.421875 16.5 36.375 
Q 16.5 21.390625 20.328125 13.890625 
Q 24.171875 6.390625 31.78125 6.390625 
Q 39.453125 6.390625 43.28125 13.890625 
Q 47.125 21.390625 47.125 36.375 
Q 47.125 51.421875 43.28125 58.90625 
Q 39.453125 66.40625 31.78125 66.40625 
z
M 31.78125 74.21875 
Q 44.046875 74.21875 50.515625 64.515625 
Q 56.984375 54.828125 56.984375 36.375 
Q 56.984375 17.96875 50.515625 8.265625 
Q 44.046875 -1.421875 31.78125 -1.421875 
Q 19.53125 -1.421875 13.0625 8.265625 
Q 6.59375 17.96875 6.59375 36.375 
Q 6.59375 54.828125 13.0625 64.515625 
Q 19.53125 74.21875 31.78125 74.21875 
z
" id="DejaVuSans-30"/>
       <path d="M 10.6875 12.40625 
L 21 12.40625 
L 21 0 
L 10.6875 0 
z
" id="DejaVuSans-2e"/>
      </defs>
      <g transform="translate(49.096875 310.25603)scale(0.1 -0.1)">
       <use xlink:href="#DejaVuSans-30"/>
       <use x="63.623047" xlink:href="#DejaVuSans-2e"/>
       <use x="95.410156" xlink:href="#DejaVuSans-30"/>
      </g>
     </g>
    </g>
    <g id="ytick_2">
     <g id="line2d_9">
      <g>
       <use style="stroke:#000000;stroke-width:0.8;" x="72" xlink:href="#m5550c2416e" y="253.805449"/>
      </g>
     </g>
     <g id="text_10">
      <!-- 0.2 -->
      <g transform="translate(49.096875 257.604668)scale(0.1 -0.1)">
       <use xlink:href="#DejaVuSans-30"/>
       <use x="63.623047" xlink:href="#DejaVuSans-2e"/>
       <use x="95.410156" xlink:href="#DejaVuSans-32"/>
      </g>
     </g>
    </g>
    <g id="ytick_3">
     <g id="line2d_10">
      <g>
       <use style="stroke:#000000;stroke-width:0.8;" x="72" xlink:href="#m5550c2416e" y="201.154087"/>
      </g>
     </g>
     <g id="text_11">
      <!-- 0.4 -->
      <g transform="translate(49.096875 204.953306)scale(0.1 -0.1)">
       <use xlink:href="#DejaVuSans-30"/>
       <use x="63.623047" xlink:href="#DejaVuSans-2e"/>
       <use x="95.410156" xlink:href="#DejaVuSans-34"/>
      </g>
     </g>
    </g>
    <g id="ytick_4">
     <g id="line2d_11">
      <g>
       <use style="stroke:#000000;stroke-width:0.8;" x="72" xlink:href="#m5550c2416e" y="148.502725"/>
      </g>
     </g>
     <g id="text_12">
      <!-- 0.6 -->
      <g transform="translate(49.096875 152.301943)scale(0.1 -0.1)">
       <use xlink:href="#DejaVuSans-30"/>
       <use x="63.623047" xlink:href="#DejaVuSans-2e"/>
       <use x="95.410156" xlink:href="#DejaVuSans-36"/>
      </g>
     </g>
    </g>
    <g id="ytick_5">
     <g id="line2d_12">
      <g>
       <use style="stroke:#000000;stroke-width:0.8;" x="72" xlink:href="#m5550c2416e" y="95.851362"/>
      </g>
     </g>
     <g id="text_13">
      <!-- 0.8 -->
      <defs>
       <path d="M 31.78125 34.625 
Q 24.75 34.625 20.71875 30.859375 
Q 16.703125 27.09375 16.703125 20.515625 
Q 16.703125 13.921875 20.71875 10.15625 
Q 24.75 6.390625 31.78125 6.390625 
Q 38.8125 6.390625 42.859375 10.171875 
Q 46.921875 13.96875 46.921875 20.515625 
Q 46.921875 27.09375 42.890625 30.859375 
Q 38.875 34.625 31.78125 34.625 
z
M 21.921875 38.8125 
Q 15.578125 40.375 12.03125 44.71875 
Q 8.5 49.078125 8.5 55.328125 
Q 8.5 64.0625 14.71875 69.140625 
Q 20.953125 74.21875 31.78125 74.21875 
Q 42.671875 74.21875 48.875 69.140625 
Q 55.078125 64.0625 55.078125 55.328125 
Q 55.078125 49.078125 51.53125 44.71875 
Q 48 40.375 41.703125 38.8125 
Q 48.828125 37.15625 52.796875 32.3125 
Q 56.78125 27.484375 56.78125 20.515625 
Q 56.78125 9.90625 50.3125 4.234375 
Q 43.84375 -1.421875 31.78125 -1.421875 
Q 19.734375 -1.421875 13.25 4.234375 
Q 6.78125 9.90625 6.78125 20.515625 
Q 6.78125 27.484375 10.78125 32.3125 
Q 14.796875 37.15625 21.921875 38.8125 
z
M 18.3125 54.390625 
Q 18.3125 48.734375 21.84375 45.5625 
Q 25.390625 42.390625 31.78125 42.390625 
Q 38.140625 42.390625 41.71875 45.5625 
Q 45.3125 48.734375 45.3125 54.390625 
Q 45.3125 60.0625 41.71875 63.234375 
Q 38.140625 66.40625 31.78125 66.40625 
Q 25.390625 66.40625 21.84375 63.234375 
Q 18.3125 60.0625 18.3125 54.390625 
z
" id="DejaVuSans-38"/>
      </defs>
      <g transform="translate(49.096875 99.650581)scale(0.1 -0.1)">
       <use xlink:href="#DejaVuSans-30"/>
       <use x="63.623047" xlink:href="#DejaVuSans-2e"/>
       <use x="95.410156" xlink:href="#DejaVuSans-38"/>
      </g>
     </g>
    </g>
    <g id="ytick_6">
     <g id="line2d_13">
      <g>
       <use style="stroke:#000000;stroke-width:0.8;" x="72" xlink:href="#m5550c2416e" y="43.2"/>
      </g>
     </g>
     <g id="text_14">
      <!-- 1.0 -->
      <g transform="translate(49.096875 46.999219)scale(0.1 -0.1)">
       <use xlink:href="#DejaVuSans-31"/>
       <use x="63.623047" xlink:href="#DejaVuSans-2e"/>
       <use x="95.410156" xlink:href="#DejaVuSans-30"/>
      </g>
     </g>
    </g>
    <g id="text_15">
     <!-- Distribution -->
     <defs>
      <path d="M 19.671875 64.796875 
L 19.671875 8.109375 
L 31.59375 8.109375 
Q 46.6875 8.109375 53.6875 14.9375 
Q 60.6875 21.78125 60.6875 36.53125 
Q 60.6875 51.171875 53.6875 57.984375 
Q 46.6875 64.796875 31.59375 64.796875 
z
M 9.8125 72.90625 
L 30.078125 72.90625 
Q 51.265625 72.90625 61.171875 64.09375 
Q 71.09375 55.28125 71.09375 36.53125 
Q 71.09375 17.671875 61.125 8.828125 
Q 51.171875 0 30.078125 0 
L 9.8125 0 
z
" id="DejaVuSans-44"/>
      <path d="M 9.421875 54.6875 
L 18.40625 54.6875 
L 18.40625 0 
L 9.421875 0 
z
M 9.421875 75.984375 
L 18.40625 75.984375 
L 18.40625 64.59375 
L 9.421875 64.59375 
z
" id="DejaVuSans-69"/>
      <path d="M 44.28125 53.078125 
L 44.28125 44.578125 
Q 40.484375 46.53125 36.375 47.5 
Q 32.28125 48.484375 27.875 48.484375 
Q 21.1875 48.484375 17.84375 46.4375 
Q 14.5 44.390625 14.5 40.28125 
Q 14.5 37.15625 16.890625 35.375 
Q 19.28125 33.59375 26.515625 31.984375 
L 29.59375 31.296875 
Q 39.15625 29.25 43.1875 25.515625 
Q 47.21875 21.78125 47.21875 15.09375 
Q 47.21875 7.46875 41.1875 3.015625 
Q 35.15625 -1.421875 24.609375 -1.421875 
Q 20.21875 -1.421875 15.453125 -0.5625 
Q 10.6875 0.296875 5.421875 2 
L 5.421875 11.28125 
Q 10.40625 8.6875 15.234375 7.390625 
Q 20.0625 6.109375 24.8125 6.109375 
Q 31.15625 6.109375 34.5625 8.28125 
Q 37.984375 10.453125 37.984375 14.40625 
Q 37.984375 18.0625 35.515625 20.015625 
Q 33.0625 21.96875 24.703125 23.78125 
L 21.578125 24.515625 
Q 13.234375 26.265625 9.515625 29.90625 
Q 5.8125 33.546875 5.8125 39.890625 
Q 5.8125 47.609375 11.28125 51.796875 
Q 16.75 56 26.8125 56 
Q 31.78125 56 36.171875 55.265625 
Q 40.578125 54.546875 44.28125 53.078125 
z
" id="DejaVuSans-73"/>
      <path d="M 41.109375 46.296875 
Q 39.59375 47.171875 37.8125 47.578125 
Q 36.03125 48 33.890625 48 
Q 26.265625 48 22.1875 43.046875 
Q 18.109375 38.09375 18.109375 28.8125 
L 18.109375 0 
L 9.078125 0 
L 9.078125 54.6875 
L 18.109375 54.6875 
L 18.109375 46.1875 
Q 20.953125 51.171875 25.484375 53.578125 
Q 30.03125 56 36.53125 56 
Q 37.453125 56 38.578125 55.875 
Q 39.703125 55.765625 41.0625 55.515625 
z
" id="DejaVuSans-72"/>
      <path d="M 48.6875 27.296875 
Q 48.6875 37.203125 44.609375 42.84375 
Q 40.53125 48.484375 33.40625 48.484375 
Q 26.265625 48.484375 22.1875 42.84375 
Q 18.109375 37.203125 18.109375 27.296875 
Q 18.109375 17.390625 22.1875 11.75 
Q 26.265625 6.109375 33.40625 6.109375 
Q 40.53125 6.109375 44.609375 11.75 
Q 48.6875 17.390625 48.6875 27.296875 
z
M 18.109375 46.390625 
Q 20.953125 51.265625 25.265625 53.625 
Q 29.59375 56 35.59375 56 
Q 45.5625 56 51.78125 48.09375 
Q 58.015625 40.1875 58.015625 27.296875 
Q 58.015625 14.40625 51.78125 6.484375 
Q 45.5625 -1.421875 35.59375 -1.421875 
Q 29.59375 -1.421875 25.265625 0.953125 
Q 20.953125 3.328125 18.109375 8.203125 
L 18.109375 0 
L 9.078125 0 
L 9.078125 75.984375 
L 18.109375 75.984375 
z
" id="DejaVuSans-62"/>
      <path d="M 8.5 21.578125 
L 8.5 54.6875 
L 17.484375 54.6875 
L 17.484375 21.921875 
Q 17.484375 14.15625 20.5 10.265625 
Q 23.53125 6.390625 29.59375 6.390625 
Q 36.859375 6.390625 41.078125 11.03125 
Q 45.3125 15.671875 45.3125 23.6875 
L 45.3125 54.6875 
L 54.296875 54.6875 
L 54.296875 0 
L 45.3125 0 
L 45.3125 8.40625 
Q 42.046875 3.421875 37.71875 1 
Q 33.40625 -1.421875 27.6875 -1.421875 
Q 18.265625 -1.421875 13.375 4.4375 
Q 8.5 10.296875 8.5 21.578125 
z
M 31.109375 56 
z
" id="DejaVuSans-75"/>
      <path d="M 30.609375 48.390625 
Q 23.390625 48.390625 19.1875 42.75 
Q 14.984375 37.109375 14.984375 27.296875 
Q 14.984375 17.484375 19.15625 11.84375 
Q 23.34375 6.203125 30.609375 6.203125 
Q 37.796875 6.203125 41.984375 11.859375 
Q 46.1875 17.53125 46.1875 27.296875 
Q 46.1875 37.015625 41.984375 42.703125 
Q 37.796875 48.390625 30.609375 48.390625 
z
M 30.609375 56 
Q 42.328125 56 49.015625 48.375 
Q 55.71875 40.765625 55.71875 27.296875 
Q 55.71875 13.875 49.015625 6.21875 
Q 42.328125 -1.421875 30.609375 -1.421875 
Q 18.84375 -1.421875 12.171875 6.21875 
Q 5.515625 13.875 5.515625 27.296875 
Q 5.515625 40.765625 12.171875 48.375 
Q 18.84375 56 30.609375 56 
z
" id="DejaVuSans-6f"/>
      <path d="M 54.890625 33.015625 
L 54.890625 0 
L 45.90625 0 
L 45.90625 32.71875 
Q 45.90625 40.484375 42.875 44.328125 
Q 39.84375 48.1875 33.796875 48.1875 
Q 26.515625 48.1875 22.3125 43.546875 
Q 18.109375 38.921875 18.109375 30.90625 
L 18.109375 0 
L 9.078125 0 
L 9.078125 54.6875 
L 18.109375 54.6875 
L 18.109375 46.1875 
Q 21.34375 51.125 25.703125 53.5625 
Q 30.078125 56 35.796875 56 
Q 45.21875 56 50.046875 50.171875 
Q 54.890625 44.34375 54.890625 33.015625 
z
" id="DejaVuSans-6e"/>
     </defs>
     <g transform="translate(43.017187 208.26875)rotate(-90)scale(0.1 -0.1)">
      <use xlink:href="#DejaVuSans-44"/>
      <use x="77.001953" xlink:href="#DejaVuSans-69"/>
      <use x="104.785156" xlink:href="#DejaVuSans-73"/>
      <use x="156.884766" xlink:href="#DejaVuSans-74"/>
      <use x="196.09375" xlink:href="#DejaVuSans-72"/>
      <use x="237.207031" xlink:href="#DejaVuSans-69"/>
      <use x="264.990234" xlink:href="#DejaVuSans-62"/>
      <use x="328.466797" xlink:href="#DejaVuSans-75"/>
      <use x="391.845703" xlink:href="#DejaVuSans-74"/>
      <use x="431.054688" xlink:href="#DejaVuSans-69"/>
      <use x="458.837891" xlink:href="#DejaVuSans-6f"/>
      <use x="520.019531" xlink:href="#DejaVuSans-6e"/>
     </g>
    </g>
   </g>
   <g id="line2d_14">
    <path clip-path="url(#pa6341318b5)" d="M 92.290909 306.455148 
L 159.927273 304.565378 
L 227.563636 276.727286 
L 295.2 135.558114 
L 362.836364 250.21937 
L 430.472727 302.002983 
L 498.109091 306.412589 
" style="fill:none;stroke:#0000ff;stroke-linecap:square;stroke-width:1.5;"/>
    <defs>
     <path d="M 0 3 
C 0.795609 3 1.55874 2.683901 2.12132 2.12132 
C 2.683901 1.55874 3 0.795609 3 0 
C 3 -0.795609 2.683901 -1.55874 2.12132 -2.12132 
C 1.55874 -2.683901 0.795609 -3 0 -3 
C -0.795609 -3 -1.55874 -2.683901 -2.12132 -2.12132 
C -2.683901 -1.55874 -3 -0.795609 -3 0 
C -3 0.795609 -2.683901 1.55874 -2.12132 2.12132 
C -1.55874 2.683901 -0.795609 3 0 3 
z
" id="m9552ad135b" style="stroke:#0000ff;"/>
    </defs>
    <g clip-path="url(#pa6341318b5)">
     <use style="fill:#0000ff;stroke:#0000ff;" x="92.290909" xlink:href="#m9552ad135b" y="306.455148"/>
     <use style="fill:#0000ff;stroke:#0000ff;" x="159.927273" xlink:href="#m9552ad135b" y="304.565378"/>
     <use style="fill:#0000ff;stroke:#0000ff;" x="227.563636" xlink:href="#m9552ad135b" y="276.727286"/>
     <use style="fill:#0000ff;stroke:#0000ff;" x="295.2" xlink:href="#m9552ad135b" y="135.558114"/>
     <use style="fill:#0000ff;stroke:#0000ff;" x="362.836364" xlink:href="#m9552ad135b" y="250.21937"/>
     <use style="fill:#0000ff;stroke:#0000ff;" x="430.472727" xlink:href="#m9552ad135b" y="302.002983"/>
     <use style="fill:#0000ff;stroke:#0000ff;" x="498.109091" xlink:href="#m9552ad135b" y="306.412589"/>
    </g>
   </g>
   <g id="line2d_15">
    <path clip-path="url(#pa6341318b5)" d="M 92.290909 306.444555 
L 159.927273 306.328203 
L 227.563636 304.785572 
L 295.2 292.166345 
L 362.836364 260.194518 
L 430.472727 219.48207 
L 498.109091 192.539605 
" style="fill:none;stroke:#ff0000;stroke-linecap:square;stroke-width:1.5;"/>
    <defs>
     <path d="M 0 -3 
L -0.673542 -0.927051 
L -2.85317 -0.927051 
L -1.089814 0.354102 
L -1.763356 2.427051 
L -0 1.145898 
L 1.763356 2.427051 
L 1.089814 0.354102 
L 2.85317 -0.927051 
L 0.673542 -0.927051 
z
" id="mb8873911a0" style="stroke:#ff0000;stroke-linejoin:bevel;"/>
    </defs>
    <g clip-path="url(#pa6341318b5)">
     <use style="fill:#ff0000;stroke:#ff0000;stroke-linejoin:bevel;" x="92.290909" xlink:href="#mb8873911a0" y="306.444555"/>
     <use style="fill:#ff0000;stroke:#ff0000;stroke-linejoin:bevel;" x="159.927273" xlink:href="#mb8873911a0" y="306.328203"/>
     <use style="fill:#ff0000;stroke:#ff0000;stroke-linejoin:bevel;" x="227.563636" xlink:href="#mb8873911a0" y="304.785572"/>
     <use style="fill:#ff0000;stroke:#ff0000;stroke-linejoin:bevel;" x="295.2" xlink:href="#mb8873911a0" y="292.166345"/>
     <use style="fill:#ff0000;stroke:#ff0000;stroke-linejoin:bevel;" x="362.836364" xlink:href="#mb8873911a0" y="260.194518"/>
     <use style="fill:#ff0000;stroke:#ff0000;stroke-linejoin:bevel;" x="430.472727" xlink:href="#mb8873911a0" y="219.48207"/>
     <use style="fill:#ff0000;stroke:#ff0000;stroke-linejoin:bevel;" x="498.109091" xlink:href="#mb8873911a0" y="192.539605"/>
    </g>
   </g>
   <g id="line2d_16">
    <path clip-path="url(#pa6341318b5)" d="M 92.290909 304.224188 
L 159.927273 300.894828 
L 227.563636 288.30216 
L 295.2 190.867768 
L 362.836364 228.739953 
L 430.472727 280.667091 
L 498.109091 288.244881 
" style="fill:none;stroke:#008000;stroke-linecap:square;stroke-width:1.5;"/>
    <defs>
     <path d="M 0 -3 
L -0.673542 -0.927051 
L -2.85317 -0.927051 
L -1.089814 0.354102 
L -1.763356 2.427051 
L -0 1.145898 
L 1.763356 2.427051 
L 1.089814 0.354102 
L 2.85317 -0.927051 
L 0.673542 -0.927051 
z
" id="m3664eb0e4c" style="stroke:#008000;stroke-linejoin:bevel;"/>
    </defs>
    <g clip-path="url(#pa6341318b5)">
     <use style="fill:#008000;stroke:#008000;stroke-linejoin:bevel;" x="92.290909" xlink:href="#m3664eb0e4c" y="304.224188"/>
     <use style="fill:#008000;stroke:#008000;stroke-linejoin:bevel;" x="159.927273" xlink:href="#m3664eb0e4c" y="300.894828"/>
     <use style="fill:#008000;stroke:#008000;stroke-linejoin:bevel;" x="227.563636" xlink:href="#m3664eb0e4c" y="288.30216"/>
     <use style="fill:#008000;stroke:#008000;stroke-linejoin:bevel;" x="295.2" xlink:href="#m3664eb0e4c" y="190.867768"/>
     <use style="fill:#008000;stroke:#008000;stroke-linejoin:bevel;" x="362.836364" xlink:href="#m3664eb0e4c" y="228.739953"/>
     <use style="fill:#008000;stroke:#008000;stroke-linejoin:bevel;" x="430.472727" xlink:href="#m3664eb0e4c" y="280.667091"/>
     <use style="fill:#008000;stroke:#008000;stroke-linejoin:bevel;" x="498.109091" xlink:href="#m3664eb0e4c" y="288.244881"/>
    </g>
   </g>
   <g id="line2d_17">
    <path clip-path="url(#pa6341318b5)" d="M 92.290909 287.36367 
L 159.927273 286.994357 
L 227.563636 284.210324 
L 295.2 271.138207 
L 362.836364 255.637299 
L 430.472727 246.666594 
L 498.109091 249.930417 
" style="fill:none;stroke:#ff0000;stroke-linecap:square;stroke-width:1.5;"/>
    <defs>
     <path d="M -3 3 
L 3 3 
L 3 -3 
L -3 -3 
z
" id="mb44690eaf3" style="stroke:#ff0000;stroke-linejoin:miter;"/>
    </defs>
    <g clip-path="url(#pa6341318b5)">
     <use style="fill:#ff0000;stroke:#ff0000;stroke-linejoin:miter;" x="92.290909" xlink:href="#mb44690eaf3" y="287.36367"/>
     <use style="fill:#ff0000;stroke:#ff0000;stroke-linejoin:miter;" x="159.927273" xlink:href="#mb44690eaf3" y="286.994357"/>
     <use style="fill:#ff0000;stroke:#ff0000;stroke-linejoin:miter;" x="227.563636" xlink:href="#mb44690eaf3" y="284.210324"/>
     <use style="fill:#ff0000;stroke:#ff0000;stroke-linejoin:miter;" x="295.2" xlink:href="#mb44690eaf3" y="271.138207"/>
     <use style="fill:#ff0000;stroke:#ff0000;stroke-linejoin:miter;" x="362.836364" xlink:href="#mb44690eaf3" y="255.637299"/>
     <use style="fill:#ff0000;stroke:#ff0000;stroke-linejoin:miter;" x="430.472727" xlink:href="#mb44690eaf3" y="246.666594"/>
     <use style="fill:#ff0000;stroke:#ff0000;stroke-linejoin:miter;" x="498.109091" xlink:href="#mb44690eaf3" y="249.930417"/>
    </g>
   </g>
   <g id="line2d_18">
    <path clip-path="url(#pa6341318b5)" d="M 92.290909 288.124346 
L 159.927273 286.339779 
L 227.563636 278.916513 
L 295.2 217.032868 
L 362.836364 248.092505 
L 430.472727 280.50447 
L 498.109091 282.930388 
" style="fill:none;stroke:#008000;stroke-linecap:square;stroke-width:1.5;"/>
    <defs>
     <path d="M -3 3 
L 3 3 
L 3 -3 
L -3 -3 
z
" id="m36f95c078b" style="stroke:#008000;stroke-linejoin:miter;"/>
    </defs>
    <g clip-path="url(#pa6341318b5)">
     <use style="fill:#008000;stroke:#008000;stroke-linejoin:miter;" x="92.290909" xlink:href="#m36f95c078b" y="288.124346"/>
     <use style="fill:#008000;stroke:#008000;stroke-linejoin:miter;" x="159.927273" xlink:href="#m36f95c078b" y="286.339779"/>
     <use style="fill:#008000;stroke:#008000;stroke-linejoin:miter;" x="227.563636" xlink:href="#m36f95c078b" y="278.916513"/>
     <use style="fill:#008000;stroke:#008000;stroke-linejoin:miter;" x="295.2" xlink:href="#m36f95c078b" y="217.032868"/>
     <use style="fill:#008000;stroke:#008000;stroke-linejoin:miter;" x="362.836364" xlink:href="#m36f95c078b" y="248.092505"/>
     <use style="fill:#008000;stroke:#008000;stroke-linejoin:miter;" x="430.472727" xlink:href="#m36f95c078b" y="280.50447"/>
     <use style="fill:#008000;stroke:#008000;stroke-linejoin:miter;" x="498.109091" xlink:href="#m36f95c078b" y="282.930388"/>
    </g>
   </g>
   <g id="patch_3">
    <path d="M 72 315 
L 72 43.2 
" style="fill:none;stroke:#000000;stroke-linecap:square;stroke-linejoin:miter;stroke-width:0.8;"/>
   </g>
   <g id="patch_4">
    <path d="M 518.4 315 
L 518.4 43.2 
" style="fill:none;stroke:#000000;stroke-linecap:square;stroke-linejoin:miter;stroke-width:0.8;"/>
   </g>
   <g id="patch_5">
    <path d="M 72 315 
L 518.4 315 
" style="fill:none;stroke:#000000;stroke-linecap:square;stroke-linejoin:miter;stroke-width:0.8;"/>
   </g>
   <g id="patch_6">
    <path d="M 72 43.2 
L 518.4 43.2 
" style="fill:none;stroke:#000000;stroke-linecap:square;stroke-linejoin:miter;stroke-width:0.8;"/>
   </g>
   <g id="text_16">
    <!-- mnist : Explained by lrp_alpha1_5_beta_5 -->
    <defs>
     <path d="M 52 44.1875 
Q 55.375 50.25 60.0625 53.125 
Q 64.75 56 71.09375 56 
Q 79.640625 56 84.28125 50.015625 
Q 88.921875 44.046875 88.921875 33.015625 
L 88.921875 0 
L 79.890625 0 
L 79.890625 32.71875 
Q 79.890625 40.578125 77.09375 44.375 
Q 74.3125 48.1875 68.609375 48.1875 
Q 61.625 48.1875 57.5625 43.546875 
Q 53.515625 38.921875 53.515625 30.90625 
L 53.515625 0 
L 44.484375 0 
L 44.484375 32.71875 
Q 44.484375 40.625 41.703125 44.40625 
Q 38.921875 48.1875 33.109375 48.1875 
Q 26.21875 48.1875 22.15625 43.53125 
Q 18.109375 38.875 18.109375 30.90625 
L 18.109375 0 
L 9.078125 0 
L 9.078125 54.6875 
L 18.109375 54.6875 
L 18.109375 46.1875 
Q 21.1875 51.21875 25.484375 53.609375 
Q 29.78125 56 35.6875 56 
Q 41.65625 56 45.828125 52.96875 
Q 50 49.953125 52 44.1875 
z
" id="DejaVuSans-6d"/>
     <path d="M 11.71875 12.40625 
L 22.015625 12.40625 
L 22.015625 0 
L 11.71875 0 
z
M 11.71875 51.703125 
L 22.015625 51.703125 
L 22.015625 39.3125 
L 11.71875 39.3125 
z
" id="DejaVuSans-3a"/>
     <path d="M 9.8125 72.90625 
L 55.90625 72.90625 
L 55.90625 64.59375 
L 19.671875 64.59375 
L 19.671875 43.015625 
L 54.390625 43.015625 
L 54.390625 34.71875 
L 19.671875 34.71875 
L 19.671875 8.296875 
L 56.78125 8.296875 
L 56.78125 0 
L 9.8125 0 
z
" id="DejaVuSans-45"/>
     <path d="M 54.890625 54.6875 
L 35.109375 28.078125 
L 55.90625 0 
L 45.3125 0 
L 29.390625 21.484375 
L 13.484375 0 
L 2.875 0 
L 24.125 28.609375 
L 4.6875 54.6875 
L 15.28125 54.6875 
L 29.78125 35.203125 
L 44.28125 54.6875 
z
" id="DejaVuSans-78"/>
     <path d="M 9.421875 75.984375 
L 18.40625 75.984375 
L 18.40625 0 
L 9.421875 0 
z
" id="DejaVuSans-6c"/>
     <path d="M 34.28125 27.484375 
Q 23.390625 27.484375 19.1875 25 
Q 14.984375 22.515625 14.984375 16.5 
Q 14.984375 11.71875 18.140625 8.90625 
Q 21.296875 6.109375 26.703125 6.109375 
Q 34.1875 6.109375 38.703125 11.40625 
Q 43.21875 16.703125 43.21875 25.484375 
L 43.21875 27.484375 
z
M 52.203125 31.203125 
L 52.203125 0 
L 43.21875 0 
L 43.21875 8.296875 
Q 40.140625 3.328125 35.546875 0.953125 
Q 30.953125 -1.421875 24.3125 -1.421875 
Q 15.921875 -1.421875 10.953125 3.296875 
Q 6 8.015625 6 15.921875 
Q 6 25.140625 12.171875 29.828125 
Q 18.359375 34.515625 30.609375 34.515625 
L 43.21875 34.515625 
L 43.21875 35.40625 
Q 43.21875 41.609375 39.140625 45 
Q 35.0625 48.390625 27.6875 48.390625 
Q 23 48.390625 18.546875 47.265625 
Q 14.109375 46.140625 10.015625 43.890625 
L 10.015625 52.203125 
Q 14.9375 54.109375 19.578125 55.046875 
Q 24.21875 56 28.609375 56 
Q 40.484375 56 46.34375 49.84375 
Q 52.203125 43.703125 52.203125 31.203125 
z
" id="DejaVuSans-61"/>
     <path d="M 45.40625 46.390625 
L 45.40625 75.984375 
L 54.390625 75.984375 
L 54.390625 0 
L 45.40625 0 
L 45.40625 8.203125 
Q 42.578125 3.328125 38.25 0.953125 
Q 33.9375 -1.421875 27.875 -1.421875 
Q 17.96875 -1.421875 11.734375 6.484375 
Q 5.515625 14.40625 5.515625 27.296875 
Q 5.515625 40.1875 11.734375 48.09375 
Q 17.96875 56 27.875 56 
Q 33.9375 56 38.25 53.625 
Q 42.578125 51.265625 45.40625 46.390625 
z
M 14.796875 27.296875 
Q 14.796875 17.390625 18.875 11.75 
Q 22.953125 6.109375 30.078125 6.109375 
Q 37.203125 6.109375 41.296875 11.75 
Q 45.40625 17.390625 45.40625 27.296875 
Q 45.40625 37.203125 41.296875 42.84375 
Q 37.203125 48.484375 30.078125 48.484375 
Q 22.953125 48.484375 18.875 42.84375 
Q 14.796875 37.203125 14.796875 27.296875 
z
" id="DejaVuSans-64"/>
     <path d="M 32.171875 -5.078125 
Q 28.375 -14.84375 24.75 -17.8125 
Q 21.140625 -20.796875 15.09375 -20.796875 
L 7.90625 -20.796875 
L 7.90625 -13.28125 
L 13.1875 -13.28125 
Q 16.890625 -13.28125 18.9375 -11.515625 
Q 21 -9.765625 23.484375 -3.21875 
L 25.09375 0.875 
L 2.984375 54.6875 
L 12.5 54.6875 
L 29.59375 11.921875 
L 46.6875 54.6875 
L 56.203125 54.6875 
z
" id="DejaVuSans-79"/>
     <path d="M 50.984375 -16.609375 
L 50.984375 -23.578125 
L -0.984375 -23.578125 
L -0.984375 -16.609375 
z
" id="DejaVuSans-5f"/>
     <path d="M 54.890625 33.015625 
L 54.890625 0 
L 45.90625 0 
L 45.90625 32.71875 
Q 45.90625 40.484375 42.875 44.328125 
Q 39.84375 48.1875 33.796875 48.1875 
Q 26.515625 48.1875 22.3125 43.546875 
Q 18.109375 38.921875 18.109375 30.90625 
L 18.109375 0 
L 9.078125 0 
L 9.078125 75.984375 
L 18.109375 75.984375 
L 18.109375 46.1875 
Q 21.34375 51.125 25.703125 53.5625 
Q 30.078125 56 35.796875 56 
Q 45.21875 56 50.046875 50.171875 
Q 54.890625 44.34375 54.890625 33.015625 
z
" id="DejaVuSans-68"/>
    </defs>
    <g transform="translate(170.376562 37.2)scale(0.12 -0.12)">
     <use xlink:href="#DejaVuSans-6d"/>
     <use x="97.412109" xlink:href="#DejaVuSans-6e"/>
     <use x="160.791016" xlink:href="#DejaVuSans-69"/>
     <use x="188.574219" xlink:href="#DejaVuSans-73"/>
     <use x="240.673828" xlink:href="#DejaVuSans-74"/>
     <use x="279.882812" xlink:href="#DejaVuSans-20"/>
     <use x="311.669922" xlink:href="#DejaVuSans-3a"/>
     <use x="345.361328" xlink:href="#DejaVuSans-20"/>
     <use x="377.148438" xlink:href="#DejaVuSans-45"/>
     <use x="440.332031" xlink:href="#DejaVuSans-78"/>
     <use x="499.511719" xlink:href="#DejaVuSans-70"/>
     <use x="562.988281" xlink:href="#DejaVuSans-6c"/>
     <use x="590.771484" xlink:href="#DejaVuSans-61"/>
     <use x="652.050781" xlink:href="#DejaVuSans-69"/>
     <use x="679.833984" xlink:href="#DejaVuSans-6e"/>
     <use x="743.212891" xlink:href="#DejaVuSans-65"/>
     <use x="804.736328" xlink:href="#DejaVuSans-64"/>
     <use x="868.212891" xlink:href="#DejaVuSans-20"/>
     <use x="900" xlink:href="#DejaVuSans-62"/>
     <use x="963.476562" xlink:href="#DejaVuSans-79"/>
     <use x="1022.65625" xlink:href="#DejaVuSans-20"/>
     <use x="1054.443359" xlink:href="#DejaVuSans-6c"/>
     <use x="1082.226562" xlink:href="#DejaVuSans-72"/>
     <use x="1123.339844" xlink:href="#DejaVuSans-70"/>
     <use x="1186.816406" xlink:href="#DejaVuSans-5f"/>
     <use x="1236.816406" xlink:href="#DejaVuSans-61"/>
     <use x="1298.095703" xlink:href="#DejaVuSans-6c"/>
     <use x="1325.878906" xlink:href="#DejaVuSans-70"/>
     <use x="1389.355469" xlink:href="#DejaVuSans-68"/>
     <use x="1452.734375" xlink:href="#DejaVuSans-61"/>
     <use x="1514.013672" xlink:href="#DejaVuSans-31"/>
     <use x="1577.636719" xlink:href="#DejaVuSans-5f"/>
     <use x="1627.636719" xlink:href="#DejaVuSans-35"/>
     <use x="1691.259766" xlink:href="#DejaVuSans-5f"/>
     <use x="1741.259766" xlink:href="#DejaVuSans-62"/>
     <use x="1804.736328" xlink:href="#DejaVuSans-65"/>
     <use x="1866.259766" xlink:href="#DejaVuSans-74"/>
     <use x="1905.46875" xlink:href="#DejaVuSans-61"/>
     <use x="1966.748047" xlink:href="#DejaVuSans-5f"/>
     <use x="2016.748047" xlink:href="#DejaVuSans-35"/>
    </g>
   </g>
   <g id="legend_1">
    <g id="patch_7">
     <path d="M 368 126.632812 
L 511.4 126.632812 
Q 513.4 126.632812 513.4 124.632812 
L 513.4 50.2 
Q 513.4 48.2 511.4 48.2 
L 368 48.2 
Q 366 48.2 366 50.2 
L 366 124.632812 
Q 366 126.632812 368 126.632812 
z
" style="fill:#ffffff;opacity:0.8;stroke:#cccccc;stroke-linejoin:miter;"/>
    </g>
    <g id="line2d_19">
     <path d="M 370 56.298437 
L 390 56.298437 
" style="fill:none;stroke:#0000ff;stroke-linecap:square;stroke-width:1.5;"/>
    </g>
    <g id="line2d_20">
     <g>
      <use style="fill:#0000ff;stroke:#0000ff;" x="380" xlink:href="#m9552ad135b" y="56.298437"/>
     </g>
    </g>
    <g id="text_17">
     <!-- Data -->
     <g transform="translate(398 59.798437)scale(0.1 -0.1)">
      <use xlink:href="#DejaVuSans-44"/>
      <use x="77.001953" xlink:href="#DejaVuSans-61"/>
      <use x="138.28125" xlink:href="#DejaVuSans-74"/>
      <use x="177.490234" xlink:href="#DejaVuSans-61"/>
     </g>
    </g>
    <g id="line2d_21">
     <path d="M 370 70.976562 
L 390 70.976562 
" style="fill:none;stroke:#ff0000;stroke-linecap:square;stroke-width:1.5;"/>
    </g>
    <g id="line2d_22">
     <g>
      <use style="fill:#ff0000;stroke:#ff0000;stroke-linejoin:bevel;" x="380" xlink:href="#mb8873911a0" y="70.976562"/>
     </g>
    </g>
    <g id="text_18">
     <!-- DTD on Shallow-7 -->
     <defs>
      <path d="M -0.296875 72.90625 
L 61.375 72.90625 
L 61.375 64.59375 
L 35.5 64.59375 
L 35.5 0 
L 25.59375 0 
L 25.59375 64.59375 
L -0.296875 64.59375 
z
" id="DejaVuSans-54"/>
      <path d="M 4.203125 54.6875 
L 13.1875 54.6875 
L 24.421875 12.015625 
L 35.59375 54.6875 
L 46.1875 54.6875 
L 57.421875 12.015625 
L 68.609375 54.6875 
L 77.59375 54.6875 
L 63.28125 0 
L 52.6875 0 
L 40.921875 44.828125 
L 29.109375 0 
L 18.5 0 
z
" id="DejaVuSans-77"/>
      <path d="M 4.890625 31.390625 
L 31.203125 31.390625 
L 31.203125 23.390625 
L 4.890625 23.390625 
z
" id="DejaVuSans-2d"/>
     </defs>
     <g transform="translate(398 74.476562)scale(0.1 -0.1)">
      <use xlink:href="#DejaVuSans-44"/>
      <use x="77.001953" xlink:href="#DejaVuSans-54"/>
      <use x="138.085938" xlink:href="#DejaVuSans-44"/>
      <use x="215.087891" xlink:href="#DejaVuSans-20"/>
      <use x="246.875" xlink:href="#DejaVuSans-6f"/>
      <use x="308.056641" xlink:href="#DejaVuSans-6e"/>
      <use x="371.435547" xlink:href="#DejaVuSans-20"/>
      <use x="403.222656" xlink:href="#DejaVuSans-53"/>
      <use x="466.699219" xlink:href="#DejaVuSans-68"/>
      <use x="530.078125" xlink:href="#DejaVuSans-61"/>
      <use x="591.357422" xlink:href="#DejaVuSans-6c"/>
      <use x="619.140625" xlink:href="#DejaVuSans-6c"/>
      <use x="646.923828" xlink:href="#DejaVuSans-6f"/>
      <use x="708.105469" xlink:href="#DejaVuSans-77"/>
      <use x="789.892578" xlink:href="#DejaVuSans-2d"/>
      <use x="825.976562" xlink:href="#DejaVuSans-37"/>
     </g>
    </g>
    <g id="line2d_23">
     <path d="M 370 85.654687 
L 390 85.654687 
" style="fill:none;stroke:#008000;stroke-linecap:square;stroke-width:1.5;"/>
    </g>
    <g id="line2d_24">
     <g>
      <use style="fill:#008000;stroke:#008000;stroke-linejoin:bevel;" x="380" xlink:href="#m3664eb0e4c" y="85.654687"/>
     </g>
    </g>
    <g id="text_19">
     <!-- DTD on Deep-7 -->
     <g transform="translate(398 89.154687)scale(0.1 -0.1)">
      <use xlink:href="#DejaVuSans-44"/>
      <use x="77.001953" xlink:href="#DejaVuSans-54"/>
      <use x="138.085938" xlink:href="#DejaVuSans-44"/>
      <use x="215.087891" xlink:href="#DejaVuSans-20"/>
      <use x="246.875" xlink:href="#DejaVuSans-6f"/>
      <use x="308.056641" xlink:href="#DejaVuSans-6e"/>
      <use x="371.435547" xlink:href="#DejaVuSans-20"/>
      <use x="403.222656" xlink:href="#DejaVuSans-44"/>
      <use x="480.224609" xlink:href="#DejaVuSans-65"/>
      <use x="541.748047" xlink:href="#DejaVuSans-65"/>
      <use x="603.271484" xlink:href="#DejaVuSans-70"/>
      <use x="666.748047" xlink:href="#DejaVuSans-2d"/>
      <use x="702.832031" xlink:href="#DejaVuSans-37"/>
     </g>
    </g>
    <g id="line2d_25">
     <path d="M 370 100.334375 
L 390 100.334375 
" style="fill:none;stroke:#ff0000;stroke-linecap:square;stroke-width:1.5;"/>
    </g>
    <g id="line2d_26">
     <g>
      <use style="fill:#ff0000;stroke:#ff0000;stroke-linejoin:miter;" x="380" xlink:href="#mb44690eaf3" y="100.334375"/>
     </g>
    </g>
    <g id="text_20">
     <!-- $LRP_{\alpha_{1.5}\beta_{0.5}}$ on Shallow-7 -->
     <defs>
      <path d="M 16.796875 72.90625 
L 26.703125 72.90625 
L 14.203125 8.203125 
L 49.703125 8.203125 
L 48.09375 0 
L 2.6875 0 
z
" id="DejaVuSans-Oblique-4c"/>
      <path d="M 25.203125 64.796875 
L 20.21875 38.921875 
L 32.90625 38.921875 
Q 40.375 38.921875 44.984375 43.046875 
Q 49.609375 47.171875 49.609375 53.8125 
Q 49.609375 59.125 46.5 61.953125 
Q 43.40625 64.796875 37.59375 64.796875 
z
M 43.3125 35.015625 
Q 46.4375 34.28125 48.515625 31.390625 
Q 50.59375 28.515625 53.328125 19.921875 
L 59.515625 0 
L 49.125 0 
L 43.40625 18.703125 
Q 41.21875 25.921875 38.328125 28.359375 
Q 35.453125 30.8125 29.5 30.8125 
L 18.609375 30.8125 
L 12.59375 0 
L 2.6875 0 
L 16.890625 72.90625 
L 39.109375 72.90625 
Q 49.21875 72.90625 54.609375 68.328125 
Q 60.015625 63.765625 60.015625 55.171875 
Q 60.015625 47.5625 55.421875 41.984375 
Q 50.828125 36.421875 43.3125 35.015625 
z
" id="DejaVuSans-Oblique-52"/>
      <path d="M 16.890625 72.90625 
L 39.703125 72.90625 
Q 49.65625 72.90625 54.875 68.265625 
Q 60.109375 63.625 60.109375 54.6875 
Q 60.109375 42.671875 52.390625 35.984375 
Q 44.671875 29.296875 30.71875 29.296875 
L 18.3125 29.296875 
L 12.59375 0 
L 2.6875 0 
z
M 25.203125 64.796875 
L 19.921875 37.40625 
L 32.328125 37.40625 
Q 40.71875 37.40625 45.203125 41.703125 
Q 49.703125 46 49.703125 54 
Q 49.703125 59.125 46.65625 61.953125 
Q 43.609375 64.796875 38.09375 64.796875 
z
" id="DejaVuSans-Oblique-50"/>
      <path d="M 40.921875 25.4375 
L 40.96875 36.71875 
Q 41.015625 48.25 32.328125 48.296875 
Q 25.828125 48.34375 21.78125 42.921875 
Q 16.703125 36.234375 14.984375 27.296875 
Q 12.890625 16.546875 15.53125 11.421875 
Q 18.265625 6.203125 24.171875 6.203125 
Q 30.71875 6.203125 36.234375 16.609375 
z
M 33.84375 55.90625 
Q 49.078125 56.15625 48.875 40.375 
Q 48.875 40.375 56.5 54.6875 
L 64.5 54.6875 
L 48.734375 25.046875 
L 48.578125 14.359375 
Q 48.578125 11.96875 49.90625 9.96875 
Q 51.421875 7.625 52.984375 7.625 
L 57.328125 7.625 
L 55.859375 0 
L 50.4375 0 
Q 45.84375 0 42.53125 4.109375 
Q 40.96875 6.15625 40.921875 10.453125 
Q 37.75 5.21875 32.28125 0.78125 
Q 29.6875 -1.265625 22.703125 -1.21875 
Q 11.28125 -1.125 7.125 6.203125 
Q 2.875 13.8125 5.515625 27.296875 
Q 8.34375 41.796875 15.765625 48.390625 
Q 24.125 55.765625 33.84375 55.90625 
z
" id="DejaVuSans-Oblique-3b1"/>
      <path d="M 13.625 3.375 
L 8.9375 -20.796875 
L -0.09375 -20.796875 
L 14.5 54.34375 
Q 18.84375 76.609375 39.65625 76.609375 
Q 60.75 76.609375 57.171875 57.8125 
Q 54.734375 44.4375 45.21875 39.546875 
Q 58.015625 35.15625 55.515625 22.125 
Q 51.125 -1.078125 27.484375 -1.03125 
Q 17.140625 -0.984375 13.625 3.375 
z
M 15.921875 15.09375 
Q 19.671875 6.59375 29.296875 6.640625 
Q 43.359375 6.640625 46.34375 21.96875 
Q 49.03125 35.75 26.171875 34.671875 
L 27.78125 42.96875 
Q 45.453125 42.671875 48.53125 58.59375 
Q 50.640625 69.34375 39.203125 69.28125 
Q 26.421875 69.28125 23.484375 54.046875 
z
" id="DejaVuSans-Oblique-3b2"/>
     </defs>
     <g transform="translate(398 103.834375)scale(0.1 -0.1)">
      <use transform="translate(0 0.015625)" xlink:href="#DejaVuSans-Oblique-4c"/>
      <use transform="translate(55.712891 0.015625)" xlink:href="#DejaVuSans-Oblique-52"/>
      <use transform="translate(125.195312 0.015625)" xlink:href="#DejaVuSans-Oblique-50"/>
      <use transform="translate(185.498047 -16.390625)scale(0.7)" xlink:href="#DejaVuSans-Oblique-3b1"/>
      <use transform="translate(231.640625 -27.875)scale(0.49)" xlink:href="#DejaVuSans-31"/>
      <use transform="translate(262.815918 -27.875)scale(0.49)" xlink:href="#DejaVuSans-2e"/>
      <use transform="translate(278.391602 -27.875)scale(0.49)" xlink:href="#DejaVuSans-35"/>
      <use transform="translate(311.480957 -16.390625)scale(0.7)" xlink:href="#DejaVuSans-Oblique-3b2"/>
      <use transform="translate(356.153809 -27.875)scale(0.49)" xlink:href="#DejaVuSans-30"/>
      <use transform="translate(387.329102 -27.875)scale(0.49)" xlink:href="#DejaVuSans-2e"/>
      <use transform="translate(402.904785 -27.875)scale(0.49)" xlink:href="#DejaVuSans-35"/>
      <use transform="translate(438.728516 0.015625)" xlink:href="#DejaVuSans-20"/>
      <use transform="translate(470.515625 0.015625)" xlink:href="#DejaVuSans-6f"/>
      <use transform="translate(531.697266 0.015625)" xlink:href="#DejaVuSans-6e"/>
      <use transform="translate(595.076172 0.015625)" xlink:href="#DejaVuSans-20"/>
      <use transform="translate(626.863281 0.015625)" xlink:href="#DejaVuSans-53"/>
      <use transform="translate(690.339844 0.015625)" xlink:href="#DejaVuSans-68"/>
      <use transform="translate(753.71875 0.015625)" xlink:href="#DejaVuSans-61"/>
      <use transform="translate(814.998047 0.015625)" xlink:href="#DejaVuSans-6c"/>
      <use transform="translate(842.78125 0.015625)" xlink:href="#DejaVuSans-6c"/>
      <use transform="translate(870.564453 0.015625)" xlink:href="#DejaVuSans-6f"/>
      <use transform="translate(931.746094 0.015625)" xlink:href="#DejaVuSans-77"/>
      <use transform="translate(1013.533203 0.015625)" xlink:href="#DejaVuSans-2d"/>
      <use transform="translate(1049.617188 0.015625)" xlink:href="#DejaVuSans-37"/>
     </g>
    </g>
    <g id="line2d_27">
     <path d="M 370 116.032812 
L 390 116.032812 
" style="fill:none;stroke:#008000;stroke-linecap:square;stroke-width:1.5;"/>
    </g>
    <g id="line2d_28">
     <g>
      <use style="fill:#008000;stroke:#008000;stroke-linejoin:miter;" x="380" xlink:href="#m36f95c078b" y="116.032812"/>
     </g>
    </g>
    <g id="text_21">
     <!-- $LRP_{\alpha_{1.5}\beta_{0.5}}$ on Deep-7 -->
     <g transform="translate(398 119.532812)scale(0.1 -0.1)">
      <use transform="translate(0 0.09375)" xlink:href="#DejaVuSans-Oblique-4c"/>
      <use transform="translate(55.712891 0.09375)" xlink:href="#DejaVuSans-Oblique-52"/>
      <use transform="translate(125.195312 0.09375)" xlink:href="#DejaVuSans-Oblique-50"/>
      <use transform="translate(185.498047 -16.3125)scale(0.7)" xlink:href="#DejaVuSans-Oblique-3b1"/>
      <use transform="translate(231.640625 -27.796875)scale(0.49)" xlink:href="#DejaVuSans-31"/>
      <use transform="translate(262.815918 -27.796875)scale(0.49)" xlink:href="#DejaVuSans-2e"/>
      <use transform="translate(278.391602 -27.796875)scale(0.49)" xlink:href="#DejaVuSans-35"/>
      <use transform="translate(311.480957 -16.3125)scale(0.7)" xlink:href="#DejaVuSans-Oblique-3b2"/>
      <use transform="translate(356.153809 -27.796875)scale(0.49)" xlink:href="#DejaVuSans-30"/>
      <use transform="translate(387.329102 -27.796875)scale(0.49)" xlink:href="#DejaVuSans-2e"/>
      <use transform="translate(402.904785 -27.796875)scale(0.49)" xlink:href="#DejaVuSans-35"/>
      <use transform="translate(438.728516 0.09375)" xlink:href="#DejaVuSans-20"/>
      <use transform="translate(470.515625 0.09375)" xlink:href="#DejaVuSans-6f"/>
      <use transform="translate(531.697266 0.09375)" xlink:href="#DejaVuSans-6e"/>
      <use transform="translate(595.076172 0.09375)" xlink:href="#DejaVuSans-20"/>
      <use transform="translate(626.863281 0.09375)" xlink:href="#DejaVuSans-44"/>
      <use transform="translate(703.865234 0.09375)" xlink:href="#DejaVuSans-65"/>
      <use transform="translate(765.388672 0.09375)" xlink:href="#DejaVuSans-65"/>
      <use transform="translate(826.912109 0.09375)" xlink:href="#DejaVuSans-70"/>
      <use transform="translate(890.388672 0.09375)" xlink:href="#DejaVuSans-2d"/>
      <use transform="translate(926.472656 0.09375)" xlink:href="#DejaVuSans-37"/>
     </g>
    </g>
   </g>
  </g>
 </g>
 <defs>
  <clipPath id="pa6341318b5">
   <rect height="271.8" width="446.4" x="72" y="43.2"/>
  </clipPath>
 </defs>
</svg>
